<svg width="263" height="270" viewBox="0 0 263 270" fill="none" xmlns="http://www.w3.org/2000/svg">
<path d="M167.367 222.631L169.166 221.37L161.103 221.843L167.367 222.631Z" fill="#2F312C"/>
<path d="M167.353 226.103L167.353 222.593L161.106 221.835L167.353 226.103Z" fill="#030000"/>
<path d="M159.418 181.084H163.997L170.418 229.084L167.418 226.485L159.418 181.084Z" fill="#030000"/>
<path d="M163.418 181.084L168.375 182.754L172.418 226.224L170.463 229.084L163.418 181.084Z" fill="#404040"/>
<path d="M170.456 220.626L176.634 226.039L170.176 228.619L170.456 220.626Z" fill="#030000"/>
<path d="M176.376 225.885L194.915 241.181L170.172 228.617L176.376 225.885Z" fill="#202020"/>
<path d="M175.384 223.695L170.478 220.663L176.339 225.91L175.384 223.695Z" fill="#2F312C"/>
<path d="M175.379 223.737L194.53 240.797L176.315 225.89L175.379 223.737Z" fill="#404040"/>
<path d="M113.29 243.768L115.089 242.507L107.026 242.98L113.29 243.768Z" fill="#2F312C"/>
<path d="M113.276 247.24L113.276 243.73L107.029 242.971L113.276 247.24Z" fill="#030000"/>
<path d="M105.418 202.084H109.997L116.418 250.084L113.418 247.485L105.418 202.084Z" fill="#030000"/>
<path d="M109.418 202.084L114.375 203.754L118.418 247.224L116.463 250.084L109.418 202.084Z" fill="#404040"/>
<path d="M131.418 201.777V163.084L110.418 172.241V212.084L131.418 201.777Z" fill="#404040"/>
<path d="M100.518 206.194L93.418 166.084L114.418 175.224L110.644 212.084L100.518 206.194Z" fill="#030000"/>
<path d="M58.418 32.9184L139.21 0.0837402L243.418 4.35471L152.103 45.0837L58.418 32.9184Z" fill="#2F312C"/>
<path d="M58.418 173.583V33.0837L152.418 44.7415V212.084H138.637L128.918 207.305L105.418 196.064L58.418 173.583Z" fill="#030000"/>
<path d="M40.9598 130.866L94.9018 161.366L97.9005 173.351L40.9598 130.866Z" fill="#030000"/>
<path d="M58.418 174.084L0.417969 83.0837L58.418 113.853V174.084Z" fill="#030000"/>
<path d="M58.418 115.084L0.417969 82.8634L58.418 55.0837V115.084Z" fill="#2F312C"/>
<path d="M220.725 181.433L243.418 145.997V5.08374L152.418 44.9867V212.084H164.23L186.572 200.024L220.725 181.433Z" fill="#404040"/>
<path d="M175.418 205.819L151.418 181.084V212.084H163.235L175.418 205.819Z" fill="#202020"/>
<path d="M126.418 206.433L151.418 181.084V212.084H138.202L126.418 206.433Z" fill="#030000"/>
<path d="M180.418 108.014L207.849 80.0837L241.418 128.084L180.418 108.014Z" fill="#F8AC47"/>
<path d="M207.418 80.0837L224.893 88.3667L241.418 128.084L207.418 80.0837Z" fill="#FFCF03"/>
<ellipse cx="241.081" cy="71.4244" rx="13.0651" ry="18.7648" transform="rotate(14.3104 241.081 71.4244)" fill="#D0CCA7"/>
<ellipse cx="245.42" cy="72.3296" rx="13.0651" ry="18.7648" transform="rotate(14.3104 245.42 72.3296)" fill="#FFFBCB"/>
<path d="M134.346 162.392L91.3109 157.458L113.662 171.228L134.346 162.392Z" fill="#202020"/>
<path d="M91.3123 157.458L123.263 145.604L40.1917 130.541L91.3123 157.458Z" fill="#2F312C"/>
<path d="M134.347 162.391L91.312 157.456L123.262 145.602L134.347 162.391Z" fill="#404040"/>
<path d="M116.379 241.762L122.557 247.176L116.099 249.756L116.379 241.762Z" fill="#030000"/>
<path d="M122.302 247.022L141.92 264.114L116.098 249.753L122.302 247.022Z" fill="#202020"/>
<path d="M121.112 244.155L116.402 241.8L122.263 247.047L121.112 244.155Z" fill="#2F312C"/>
<path d="M121.076 244.082L141.727 263.921L122.235 247.029L121.076 244.082Z" fill="#404040"/>
<ellipse cx="158.651" cy="101.828" rx="13.0651" ry="18.7648" transform="rotate(14.3104 158.651 101.828)" fill="#D0CCA7"/>
<ellipse cx="162.989" cy="102.733" rx="13.0651" ry="18.7648" transform="rotate(14.3104 162.989 102.733)" fill="#FFFBCB"/>
</svg>
