<svg width="193" height="73" viewBox="0 0 193 73" fill="none" xmlns="http://www.w3.org/2000/svg">
<path d="M3.41797 23.9551C3.41797 22.8505 4.3134 21.9551 5.41797 21.9551H187.494C188.599 21.9551 189.494 22.8505 189.494 23.9551V69.3617C189.494 70.4663 188.599 71.3617 187.494 71.3617H5.41797C4.3134 71.3617 3.41797 70.4663 3.41797 69.3617V23.9551Z" fill="#4F978B"/>
<path d="M3.41797 5.70508C3.41797 4.60051 4.3134 3.70508 5.41797 3.70508H187.418C188.523 3.70508 189.418 4.60051 189.418 5.70508V60.7051C189.418 61.8096 188.523 62.7051 187.418 62.7051H5.41797C4.3134 62.7051 3.41797 61.8096 3.41797 60.7051V5.70508Z" fill="#7FCDC0"/>
<path d="M5.41797 2.20508C3.48497 2.20508 1.91797 3.77208 1.91797 5.70508V67.3627C1.91797 69.2957 3.48497 70.8627 5.41797 70.8627H187.494C189.427 70.8627 190.994 69.2957 190.994 67.3627V5.70508C190.994 3.77208 189.427 2.20508 187.494 2.20508H5.41797Z" stroke="#1E1C11" stroke-width="3"/>
</svg>
