<svg width="73" height="77" viewBox="0 0 73 77" fill="none" xmlns="http://www.w3.org/2000/svg">
<path d="M3.12524 24.9038C3.12524 23.7992 4.02067 22.9038 5.12524 22.9038H67.1252C68.2298 22.9038 69.1252 23.7992 69.1252 24.9038V73.9038C69.1252 75.0084 68.2298 75.9038 67.1252 75.9038H5.12524C4.02067 75.9038 3.12524 75.0084 3.12524 73.9038V24.9038Z" fill="#4F978B"/>
<path d="M3.12524 5.90381C3.12524 4.79924 4.02067 3.90381 5.12524 3.90381H67.1252C68.2298 3.90381 69.1252 4.79924 69.1252 5.90381V53.9038C69.1252 55.0084 68.2298 55.9038 67.1252 55.9038H5.12524C4.02067 55.9038 3.12524 55.0084 3.12524 53.9038V5.90381Z" fill="#7FCDC0"/>
<path d="M5.125 2.40381C3.192 2.40381 1.625 3.97081 1.625 5.90381V71.9038C1.625 73.8368 3.192 75.4038 5.125 75.4038H66.9795C68.9125 75.4038 70.4795 73.8368 70.4795 71.9038V5.90381C70.4795 3.97081 68.9125 2.40381 66.9795 2.40381H5.125Z" stroke="#1E1C11" stroke-width="3"/>
<path d="M34.217 32.7198C34.089 32.7198 33.977 32.6718 33.881 32.5758C33.785 32.4798 33.737 32.3678 33.737 32.2398C33.737 32.0158 33.745 31.8478 33.761 31.7358C33.873 31.0798 34.121 30.4878 34.505 29.9598C34.905 29.4318 35.441 28.8398 36.113 28.1838C36.609 27.7038 36.985 27.3038 37.241 26.9838C37.497 26.6478 37.633 26.3198 37.649 25.9998C37.697 25.5358 37.545 25.1598 37.193 24.8718C36.857 24.5838 36.433 24.4398 35.921 24.4398C34.737 24.4398 34.009 25.0078 33.737 26.1438C33.657 26.3358 33.561 26.4798 33.449 26.5758C33.337 26.6718 33.177 26.7198 32.969 26.7198H29.849C29.689 26.7198 29.553 26.6638 29.441 26.5518C29.345 26.4238 29.297 26.2638 29.297 26.0718C29.329 25.2078 29.609 24.3758 30.137 23.5758C30.665 22.7758 31.449 22.1278 32.489 21.6318C33.529 21.1198 34.769 20.8638 36.209 20.8638C37.681 20.8638 38.873 21.0958 39.785 21.5598C40.713 22.0078 41.377 22.5598 41.777 23.2158C42.177 23.8718 42.377 24.5358 42.377 25.2078C42.377 26.0238 42.193 26.7358 41.825 27.3438C41.457 27.9518 40.929 28.6318 40.241 29.3838C39.809 29.8638 39.481 30.2478 39.257 30.5358C39.033 30.8238 38.849 31.1358 38.705 31.4718C38.641 31.6158 38.585 31.8158 38.537 32.0718C38.409 32.3118 38.289 32.4798 38.177 32.5758C38.081 32.6718 37.945 32.7198 37.769 32.7198H34.217ZM34.289 37.9038C34.113 37.9038 33.961 37.8478 33.833 37.7358C33.721 37.6238 33.665 37.4798 33.665 37.3038V34.4478C33.665 34.2718 33.721 34.1278 33.833 34.0158C33.961 33.8878 34.113 33.8238 34.289 33.8238H37.505C37.681 33.8238 37.825 33.8878 37.937 34.0158C38.065 34.1278 38.129 34.2718 38.129 34.4478V37.3038C38.129 37.4798 38.065 37.6238 37.937 37.7358C37.825 37.8478 37.681 37.9038 37.505 37.9038H34.289Z" fill="#1E1C11"/>
<path d="M3.177 24.9409C3.177 23.8363 4.07243 22.9409 5.177 22.9409H67.177C68.2816 22.9409 69.177 23.8363 69.177 24.9409V73.9409C69.177 75.0455 68.2816 75.9409 67.177 75.9409H5.177C4.07243 75.9409 3.177 75.0455 3.177 73.9409V24.9409Z" fill="#4F978B"/>
<path d="M3.17676 5.75049C3.17676 4.64592 4.07219 3.75049 5.17676 3.75049H67.1768C68.2813 3.75049 69.1768 4.64592 69.1768 5.75049V64.7505C69.1768 65.8551 68.2813 66.7505 67.1768 66.7505H5.17676C4.07219 66.7505 3.17676 65.8551 3.17676 64.7505V5.75049Z" fill="#7FCDC0"/>
<path d="M5.17676 2.44092C3.24376 2.44092 1.67676 4.00792 1.67676 5.94092V71.9409C1.67676 73.8739 3.24376 75.4409 5.17676 75.4409H67.0313C68.9642 75.4409 70.5312 73.8739 70.5312 71.9409V5.94092C70.5312 4.00792 68.9642 2.44092 67.0312 2.44092H5.17676Z" stroke="#1E1C11" stroke-width="3"/>
<path d="M34.2688 41.5665C34.1408 41.5665 34.0288 41.5185 33.9328 41.4225C33.8368 41.3265 33.7888 41.2145 33.7888 41.0865C33.7888 40.8625 33.7968 40.6945 33.8128 40.5825C33.9248 39.9265 34.1728 39.3345 34.5568 38.8065C34.9568 38.2785 35.4928 37.6865 36.1648 37.0305C36.6608 36.5505 37.0368 36.1505 37.2928 35.8305C37.5488 35.4945 37.6848 35.1665 37.7008 34.8465C37.7488 34.3825 37.5968 34.0065 37.2448 33.7185C36.9088 33.4305 36.4848 33.2865 35.9728 33.2865C34.7888 33.2865 34.0608 33.8545 33.7888 34.9905C33.7088 35.1825 33.6128 35.3265 33.5008 35.4225C33.3888 35.5185 33.2288 35.5665 33.0208 35.5665H29.9008C29.7408 35.5665 29.6048 35.5105 29.4928 35.3985C29.3968 35.2705 29.3488 35.1105 29.3488 34.9185C29.3808 34.0545 29.6608 33.2225 30.1888 32.4225C30.7168 31.6225 31.5008 30.9745 32.5408 30.4785C33.5808 29.9665 34.8208 29.7105 36.2608 29.7105C37.7328 29.7105 38.9248 29.9425 39.8368 30.4065C40.7648 30.8545 41.4288 31.4065 41.8288 32.0625C42.2288 32.7185 42.4288 33.3825 42.4288 34.0545C42.4288 34.8705 42.2448 35.5825 41.8768 36.1905C41.5088 36.7985 40.9808 37.4785 40.2928 38.2305C39.8608 38.7105 39.5328 39.0945 39.3088 39.3825C39.0848 39.6705 38.9008 39.9825 38.7568 40.3185C38.6928 40.4625 38.6368 40.6625 38.5888 40.9185C38.4608 41.1585 38.3408 41.3265 38.2288 41.4225C38.1328 41.5185 37.9968 41.5665 37.8208 41.5665H34.2688ZM34.3408 46.7505C34.1648 46.7505 34.0128 46.6945 33.8848 46.5825C33.7728 46.4705 33.7168 46.3265 33.7168 46.1505V43.2945C33.7168 43.1185 33.7728 42.9745 33.8848 42.8625C34.0128 42.7345 34.1648 42.6705 34.3408 42.6705H37.5568C37.7328 42.6705 37.8768 42.7345 37.9888 42.8625C38.1168 42.9745 38.1808 43.1185 38.1808 43.2945V46.1505C38.1808 46.3265 38.1168 46.4705 37.9888 46.5825C37.8768 46.6945 37.7328 46.7505 37.5568 46.7505H34.3408Z" fill="#1E1C11"/>
</svg>
