<svg width="583" height="306" viewBox="0 0 583 306" fill="none" xmlns="http://www.w3.org/2000/svg">
<g filter="url(#filter0_d)">
<path d="M24.418 235.457V276.846L54.1035 227.457L295.918 256.346L552.524 226.457L558.418 206.334L546.853 73.2924L272.209 62.3457H24.418L24.418 235.457Z" fill="#11110E"/>
</g>
<path d="M24.418 205.324V246.512L52.1035 205.324L295.918 235.345L558.418 205.324L546.853 35.3022L272.209 16.8457L24.418 35.2129L24.418 205.324Z" fill="#1E1C11"/>
<path d="M63.378 100.846C63.25 100.846 63.138 100.798 63.042 100.702C62.946 100.606 62.898 100.494 62.898 100.366L62.946 100.102L68.898 84.5737C69.026 84.2217 69.282 84.0457 69.666 84.0457H71.202C71.586 84.0457 71.842 84.2217 71.97 84.5737L77.922 100.102L77.97 100.366C77.97 100.494 77.914 100.606 77.802 100.702C77.706 100.798 77.594 100.846 77.466 100.846H76.338C76.178 100.846 76.042 100.806 75.93 100.726C75.834 100.63 75.77 100.534 75.738 100.438L74.394 96.9817H66.45L65.13 100.438C65.002 100.71 64.802 100.846 64.53 100.846H63.378ZM67.146 94.9897H73.722L70.434 86.3737L67.146 94.9897ZM84.5212 101.086C83.4172 101.086 82.4812 100.91 81.7132 100.558C80.9612 100.19 80.4012 99.7737 80.0332 99.3097C79.6652 98.8457 79.4812 98.4617 79.4812 98.1577C79.4812 97.9977 79.5372 97.8777 79.6492 97.7977C79.7612 97.7017 79.8812 97.6537 80.0092 97.6537H81.0172C81.1132 97.6537 81.1852 97.6697 81.2332 97.7017C81.2972 97.7337 81.3772 97.8057 81.4732 97.9177C81.8412 98.3657 82.2492 98.7177 82.6972 98.9737C83.1612 99.2297 83.7772 99.3577 84.5452 99.3577C85.4092 99.3577 86.0972 99.1977 86.6092 98.8777C87.1372 98.5577 87.4012 98.0937 87.4012 97.4857C87.4012 97.0857 87.2892 96.7657 87.0652 96.5257C86.8412 96.2857 86.4652 96.0697 85.9372 95.8777C85.4252 95.6857 84.6572 95.4777 83.6332 95.2537C82.2412 94.9497 81.2572 94.5097 80.6812 93.9337C80.1052 93.3577 79.8172 92.6137 79.8172 91.7017C79.8172 91.1097 79.9932 90.5417 80.3452 89.9977C80.6972 89.4377 81.2172 88.9897 81.9052 88.6537C82.6092 88.3017 83.4412 88.1257 84.4012 88.1257C85.4092 88.1257 86.2652 88.2937 86.9692 88.6297C87.6892 88.9657 88.2252 89.3577 88.5772 89.8057C88.9452 90.2537 89.1292 90.6297 89.1292 90.9337C89.1292 91.0777 89.0732 91.1977 88.9612 91.2937C88.8652 91.3897 88.7452 91.4377 88.6012 91.4377H87.6892C87.4652 91.4377 87.3052 91.3497 87.2092 91.1737C86.9372 90.8697 86.7052 90.6377 86.5132 90.4777C86.3372 90.3017 86.0732 90.1577 85.7212 90.0457C85.3692 89.9177 84.9292 89.8537 84.4012 89.8537C83.6172 89.8537 83.0172 90.0217 82.6012 90.3577C82.1852 90.6777 81.9772 91.1097 81.9772 91.6537C81.9772 91.9897 82.0652 92.2777 82.2412 92.5177C82.4172 92.7417 82.7532 92.9577 83.2492 93.1657C83.7452 93.3577 84.4812 93.5577 85.4572 93.7657C86.9772 94.0857 88.0492 94.5417 88.6732 95.1337C89.3132 95.7257 89.6332 96.4857 89.6332 97.4137C89.6332 98.1017 89.4332 98.7257 89.0332 99.2857C88.6492 99.8457 88.0652 100.286 87.2812 100.606C86.5132 100.926 85.5932 101.086 84.5212 101.086ZM93.0127 100.846C92.8527 100.846 92.7167 100.798 92.6047 100.702C92.5087 100.59 92.4607 100.454 92.4607 100.294V84.3577C92.4607 84.1817 92.5087 84.0457 92.6047 83.9497C92.7167 83.8537 92.8527 83.8057 93.0127 83.8057H94.0447C94.2047 83.8057 94.3327 83.8617 94.4287 83.9737C94.5407 84.0697 94.5967 84.1977 94.5967 84.3577V92.7337L99.3967 88.7737C99.6367 88.5977 99.8047 88.4857 99.9007 88.4377C99.9967 88.3897 100.149 88.3657 100.357 88.3657H101.557C101.701 88.3657 101.813 88.4137 101.893 88.5097C101.989 88.5897 102.037 88.7097 102.037 88.8697C102.037 89.0137 101.949 89.1657 101.773 89.3257L96.1567 93.9337L102.373 99.8857C102.549 100.062 102.637 100.214 102.637 100.342C102.637 100.486 102.589 100.606 102.493 100.702C102.413 100.798 102.301 100.846 102.157 100.846H100.981C100.741 100.846 100.565 100.822 100.453 100.774C100.357 100.726 100.213 100.614 100.021 100.438L94.5967 95.3017V100.294C94.5967 100.454 94.5407 100.59 94.4287 100.702C94.3327 100.798 94.2047 100.846 94.0447 100.846H93.0127ZM110.965 100.846C110.805 100.846 110.669 100.798 110.557 100.702C110.461 100.59 110.413 100.454 110.413 100.294V88.9177C110.413 88.7577 110.461 88.6297 110.557 88.5337C110.669 88.4217 110.805 88.3657 110.965 88.3657H111.973C112.133 88.3657 112.261 88.4217 112.357 88.5337C112.453 88.6297 112.501 88.7577 112.501 88.9177V89.7337C113.365 88.6617 114.533 88.1257 116.005 88.1257C117.765 88.1257 119.013 88.8617 119.749 90.3337C120.133 89.6617 120.677 89.1257 121.381 88.7257C122.101 88.3257 122.901 88.1257 123.781 88.1257C125.093 88.1257 126.165 88.5737 126.997 89.4697C127.829 90.3657 128.245 91.6617 128.245 93.3577V100.294C128.245 100.454 128.189 100.59 128.077 100.702C127.981 100.798 127.853 100.846 127.693 100.846H126.661C126.501 100.846 126.365 100.798 126.253 100.702C126.157 100.59 126.109 100.454 126.109 100.294V93.5737C126.109 92.2937 125.845 91.3817 125.317 90.8377C124.789 90.2777 124.093 89.9977 123.229 89.9977C122.461 89.9977 121.797 90.2857 121.237 90.8617C120.693 91.4217 120.421 92.3257 120.421 93.5737V100.294C120.421 100.454 120.365 100.59 120.253 100.702C120.157 100.798 120.029 100.846 119.869 100.846H118.813C118.653 100.846 118.517 100.798 118.405 100.702C118.309 100.59 118.261 100.454 118.261 100.294V93.5737C118.261 92.3097 117.981 91.3977 117.421 90.8377C116.877 90.2777 116.197 89.9977 115.381 89.9977C114.613 89.9977 113.949 90.2777 113.389 90.8377C112.845 91.3977 112.573 92.3017 112.573 93.5497V100.294C112.573 100.454 112.517 100.59 112.405 100.702C112.309 100.798 112.181 100.846 112.021 100.846H110.965ZM136.662 101.086C135.03 101.086 133.726 100.582 132.75 99.5737C131.774 98.5497 131.238 97.1577 131.142 95.3977L131.118 94.5817L131.142 93.7897C131.238 92.0617 131.774 90.6857 132.75 89.6617C133.726 88.6377 135.03 88.1257 136.662 88.1257C138.422 88.1257 139.782 88.6857 140.742 89.8057C141.718 90.9257 142.206 92.4457 142.206 94.3657V94.7977C142.206 94.9577 142.15 95.0937 142.038 95.2057C141.942 95.3017 141.814 95.3497 141.654 95.3497H133.326V95.5657C133.374 96.6057 133.694 97.4937 134.286 98.2297C134.878 98.9657 135.662 99.3337 136.638 99.3337C137.39 99.3337 137.998 99.1897 138.462 98.9017C138.942 98.5977 139.302 98.2857 139.542 97.9657C139.686 97.7737 139.798 97.6617 139.878 97.6297C139.958 97.5817 140.094 97.5577 140.286 97.5577H141.342C141.486 97.5577 141.606 97.5977 141.702 97.6777C141.814 97.7577 141.87 97.8617 141.87 97.9897C141.87 98.3417 141.654 98.7657 141.222 99.2617C140.79 99.7577 140.174 100.19 139.374 100.558C138.59 100.91 137.686 101.086 136.662 101.086ZM140.022 93.7177V93.6457C140.022 92.5257 139.718 91.6137 139.11 90.9097C138.502 90.2057 137.686 89.8537 136.662 89.8537C135.622 89.8537 134.806 90.2057 134.214 90.9097C133.622 91.6137 133.326 92.5257 133.326 93.6457V93.7177H140.022ZM154.486 101.086C153.702 101.086 152.974 100.926 152.302 100.606C151.646 100.286 151.118 99.8537 150.718 99.3097C150.334 98.7497 150.142 98.1337 150.142 97.4617C150.142 96.4057 150.574 95.5417 151.438 94.8697C152.302 94.1977 153.478 93.7497 154.966 93.5257L158.566 93.0217V92.3257C158.566 90.6777 157.614 89.8537 155.71 89.8537C154.974 89.8537 154.382 90.0057 153.934 90.3097C153.486 90.5977 153.158 90.9417 152.95 91.3417C152.886 91.5017 152.814 91.6137 152.734 91.6777C152.67 91.7257 152.574 91.7497 152.446 91.7497H151.51C151.366 91.7497 151.238 91.7017 151.126 91.6057C151.03 91.4937 150.982 91.3657 150.982 91.2217C150.982 90.8537 151.15 90.4297 151.486 89.9497C151.838 89.4537 152.374 89.0297 153.094 88.6777C153.814 88.3097 154.694 88.1257 155.734 88.1257C157.526 88.1257 158.806 88.5417 159.574 89.3737C160.358 90.2057 160.75 91.2457 160.75 92.4937V100.294C160.75 100.454 160.694 100.59 160.582 100.702C160.486 100.798 160.358 100.846 160.198 100.846H159.142C158.982 100.846 158.854 100.798 158.758 100.702C158.662 100.59 158.614 100.454 158.614 100.294V99.2377C158.262 99.7657 157.75 100.206 157.078 100.558C156.406 100.91 155.542 101.086 154.486 101.086ZM154.966 99.3337C156.022 99.3337 156.886 98.9897 157.558 98.3017C158.23 97.6137 158.566 96.6137 158.566 95.3017V94.6297L155.758 95.0377C154.606 95.1977 153.734 95.4697 153.142 95.8537C152.55 96.2377 152.254 96.7177 152.254 97.2937C152.254 97.9497 152.518 98.4537 153.046 98.8057C153.59 99.1577 154.23 99.3337 154.966 99.3337ZM164.778 100.846C164.618 100.846 164.482 100.798 164.37 100.702C164.274 100.59 164.226 100.454 164.226 100.294V88.9177C164.226 88.7577 164.274 88.6297 164.37 88.5337C164.482 88.4217 164.618 88.3657 164.778 88.3657H165.81C165.986 88.3657 166.122 88.4137 166.218 88.5097C166.314 88.6057 166.362 88.7417 166.362 88.9177V89.9737C166.842 89.3817 167.394 88.9257 168.018 88.6057C168.658 88.2857 169.45 88.1257 170.394 88.1257C171.93 88.1257 173.122 88.6217 173.97 89.6137C174.818 90.5897 175.242 91.8857 175.242 93.5017V100.294C175.242 100.454 175.186 100.59 175.074 100.702C174.978 100.798 174.85 100.846 174.69 100.846H173.586C173.426 100.846 173.29 100.798 173.178 100.702C173.082 100.59 173.034 100.454 173.034 100.294V93.6457C173.034 92.4937 172.754 91.5977 172.194 90.9577C171.634 90.3177 170.834 89.9977 169.794 89.9977C168.77 89.9977 167.954 90.3257 167.346 90.9817C166.738 91.6217 166.434 92.5097 166.434 93.6457V100.294C166.434 100.454 166.378 100.59 166.266 100.702C166.17 100.798 166.042 100.846 165.882 100.846H164.778ZM180.519 105.406C180.375 105.406 180.255 105.358 180.159 105.262C180.063 105.166 180.015 105.054 180.015 104.926C180.015 104.878 180.055 104.734 180.135 104.494L182.007 100.102L177.423 89.2777C177.327 89.0857 177.279 88.9497 177.279 88.8697C177.295 88.7257 177.351 88.6057 177.447 88.5097C177.543 88.4137 177.655 88.3657 177.783 88.3657H178.887C179.143 88.3657 179.335 88.4937 179.463 88.7497L183.159 97.5817L186.951 88.7497C187.079 88.4937 187.271 88.3657 187.527 88.3657H188.607C188.735 88.3657 188.847 88.4137 188.943 88.5097C189.039 88.6057 189.087 88.7177 189.087 88.8457C189.087 88.9577 189.047 89.1017 188.967 89.2777L182.175 105.022C182.095 105.15 182.007 105.246 181.911 105.31C181.831 105.374 181.719 105.406 181.575 105.406H180.519ZM196.307 100.846C193.827 100.846 192.587 99.4457 192.587 96.6457V90.2137H190.691C190.531 90.2137 190.403 90.1657 190.307 90.0697C190.211 89.9737 190.163 89.8457 190.163 89.6857V88.9177C190.163 88.7577 190.211 88.6297 190.307 88.5337C190.403 88.4217 190.531 88.3657 190.691 88.3657H192.587V84.3577C192.587 84.1977 192.635 84.0697 192.731 83.9737C192.827 83.8617 192.955 83.8057 193.115 83.8057H194.171C194.331 83.8057 194.459 83.8617 194.555 83.9737C194.667 84.0697 194.723 84.1977 194.723 84.3577V88.3657H197.699C197.859 88.3657 197.987 88.4217 198.083 88.5337C198.195 88.6297 198.251 88.7577 198.251 88.9177V89.6857C198.251 89.8457 198.195 89.9737 198.083 90.0697C197.987 90.1657 197.859 90.2137 197.699 90.2137H194.723V96.4777C194.723 97.2937 194.851 97.9097 195.107 98.3257C195.379 98.7417 195.835 98.9497 196.475 98.9497H197.939C198.099 98.9497 198.227 99.0057 198.323 99.1177C198.419 99.2137 198.467 99.3417 198.467 99.5017V100.294C198.467 100.454 198.419 100.59 198.323 100.702C198.227 100.798 198.099 100.846 197.939 100.846H196.307ZM201.388 100.846C201.228 100.846 201.092 100.798 200.98 100.702C200.884 100.59 200.836 100.454 200.836 100.294V84.3577C200.836 84.1817 200.884 84.0457 200.98 83.9497C201.092 83.8537 201.228 83.8057 201.388 83.8057H202.492C202.668 83.8057 202.804 83.8537 202.9 83.9497C202.996 84.0457 203.044 84.1817 203.044 84.3577V89.9497C203.508 89.3577 204.052 88.9097 204.676 88.6057C205.316 88.2857 206.1 88.1257 207.028 88.1257C208.564 88.1257 209.756 88.6217 210.604 89.6137C211.468 90.5897 211.9 91.8857 211.9 93.5017V100.294C211.9 100.454 211.844 100.59 211.732 100.702C211.636 100.798 211.508 100.846 211.348 100.846H210.22C210.06 100.846 209.924 100.798 209.812 100.702C209.716 100.59 209.668 100.454 209.668 100.294V93.6457C209.668 92.4937 209.388 91.5977 208.828 90.9577C208.268 90.3177 207.46 89.9977 206.404 89.9977C205.38 89.9977 204.564 90.3257 203.956 90.9817C203.348 91.6217 203.044 92.5097 203.044 93.6457V100.294C203.044 100.454 202.988 100.59 202.876 100.702C202.78 100.798 202.652 100.846 202.492 100.846H201.388ZM215.75 86.0137C215.59 86.0137 215.454 85.9657 215.342 85.8697C215.246 85.7577 215.198 85.6217 215.198 85.4617V84.2137C215.198 84.0537 215.246 83.9177 215.342 83.8057C215.454 83.6937 215.59 83.6377 215.75 83.6377H217.166C217.326 83.6377 217.462 83.6937 217.574 83.8057C217.686 83.9177 217.742 84.0537 217.742 84.2137V85.4617C217.742 85.6217 217.686 85.7577 217.574 85.8697C217.462 85.9657 217.326 86.0137 217.166 86.0137H215.75ZM215.942 100.846C215.782 100.846 215.646 100.798 215.534 100.702C215.438 100.59 215.39 100.454 215.39 100.294V88.9177C215.39 88.7577 215.438 88.6297 215.534 88.5337C215.646 88.4217 215.782 88.3657 215.942 88.3657H216.998C217.158 88.3657 217.286 88.4217 217.382 88.5337C217.494 88.6297 217.55 88.7577 217.55 88.9177V100.294C217.55 100.454 217.494 100.59 217.382 100.702C217.286 100.798 217.158 100.846 216.998 100.846H215.942ZM221.707 100.846C221.547 100.846 221.411 100.798 221.299 100.702C221.203 100.59 221.155 100.454 221.155 100.294V88.9177C221.155 88.7577 221.203 88.6297 221.299 88.5337C221.411 88.4217 221.547 88.3657 221.707 88.3657H222.739C222.915 88.3657 223.051 88.4137 223.147 88.5097C223.243 88.6057 223.291 88.7417 223.291 88.9177V89.9737C223.771 89.3817 224.323 88.9257 224.947 88.6057C225.587 88.2857 226.379 88.1257 227.323 88.1257C228.859 88.1257 230.051 88.6217 230.899 89.6137C231.747 90.5897 232.171 91.8857 232.171 93.5017V100.294C232.171 100.454 232.115 100.59 232.003 100.702C231.907 100.798 231.779 100.846 231.619 100.846H230.515C230.355 100.846 230.219 100.798 230.107 100.702C230.011 100.59 229.963 100.454 229.963 100.294V93.6457C229.963 92.4937 229.683 91.5977 229.123 90.9577C228.563 90.3177 227.763 89.9977 226.723 89.9977C225.699 89.9977 224.883 90.3257 224.275 90.9817C223.667 91.6217 223.363 92.5097 223.363 93.6457V100.294C223.363 100.454 223.307 100.59 223.195 100.702C223.099 100.798 222.971 100.846 222.811 100.846H221.707ZM240.704 106.126C239.376 106.126 238.312 105.902 237.512 105.454C236.712 105.006 236.144 104.494 235.808 103.918C235.488 103.342 235.328 102.846 235.328 102.43C235.328 102.286 235.384 102.158 235.496 102.046C235.608 101.95 235.736 101.902 235.88 101.902H236.936C237.08 101.902 237.2 101.934 237.296 101.998C237.392 102.078 237.472 102.214 237.536 102.406C237.984 103.686 239 104.326 240.584 104.326C241.784 104.326 242.672 104.07 243.248 103.558C243.824 103.046 244.112 102.142 244.112 100.846V99.1897C243.184 100.374 241.888 100.966 240.224 100.966C238.528 100.966 237.256 100.422 236.408 99.3337C235.576 98.2457 235.136 96.8697 235.088 95.2057L235.064 94.5337L235.088 93.8857C235.136 92.2377 235.576 90.8697 236.408 89.7817C237.256 88.6777 238.528 88.1257 240.224 88.1257C241.904 88.1257 243.216 88.7417 244.16 89.9737V88.9417C244.16 88.7817 244.208 88.6457 244.304 88.5337C244.416 88.4217 244.552 88.3657 244.712 88.3657H245.744C245.904 88.3657 246.032 88.4217 246.128 88.5337C246.24 88.6457 246.296 88.7817 246.296 88.9417V100.582C246.296 104.278 244.432 106.126 240.704 106.126ZM240.656 99.0937C241.776 99.0937 242.616 98.7337 243.176 98.0137C243.752 97.2777 244.064 96.3977 244.112 95.3737C244.128 95.2297 244.136 94.9497 244.136 94.5337C244.136 94.1337 244.128 93.8617 244.112 93.7177C244.064 92.6937 243.752 91.8217 243.176 91.1017C242.616 90.3657 241.776 89.9977 240.656 89.9977C239.504 89.9977 238.664 90.3657 238.136 91.1017C237.624 91.8217 237.344 92.7577 237.296 93.9097L237.272 94.5337L237.296 95.1817C237.344 96.3337 237.624 97.2777 238.136 98.0137C238.664 98.7337 239.504 99.0937 240.656 99.0937ZM250.297 100.846C250.137 100.846 250.001 100.798 249.889 100.702C249.793 100.59 249.745 100.454 249.745 100.294V98.6377C249.745 98.4777 249.793 98.3417 249.889 98.2297C250.001 98.1177 250.137 98.0617 250.297 98.0617H251.953C252.113 98.0617 252.241 98.1177 252.337 98.2297C252.449 98.3417 252.505 98.4777 252.505 98.6377V100.294C252.505 100.454 252.449 100.59 252.337 100.702C252.241 100.798 252.113 100.846 251.953 100.846H250.297ZM262.66 100.846C262.5 100.846 262.372 100.798 262.276 100.702C262.18 100.59 262.132 100.454 262.132 100.294V84.5977C262.132 84.4377 262.18 84.3097 262.276 84.2137C262.372 84.1017 262.5 84.0457 262.66 84.0457H263.86C264.036 84.0457 264.172 84.0937 264.268 84.1897C264.364 84.2857 264.412 84.4217 264.412 84.5977V100.294C264.412 100.454 264.356 100.59 264.244 100.702C264.148 100.798 264.02 100.846 263.86 100.846H262.66ZM279.233 101.086C277.521 101.086 276.185 100.606 275.225 99.6457C274.265 98.6697 273.761 97.3097 273.713 95.5657L273.689 94.6057L273.713 93.6457C273.761 91.9017 274.265 90.5497 275.225 89.5897C276.185 88.6137 277.521 88.1257 279.233 88.1257C280.385 88.1257 281.353 88.3337 282.137 88.7497C282.937 89.1497 283.529 89.6537 283.913 90.2617C284.313 90.8697 284.529 91.4777 284.561 92.0857C284.577 92.2297 284.521 92.3577 284.393 92.4697C284.281 92.5817 284.153 92.6377 284.009 92.6377H282.953C282.793 92.6377 282.673 92.6057 282.593 92.5417C282.513 92.4617 282.433 92.3257 282.353 92.1337C282.065 91.3497 281.665 90.7977 281.153 90.4777C280.657 90.1417 280.025 89.9737 279.257 89.9737C278.249 89.9737 277.449 90.2857 276.857 90.9097C276.265 91.5337 275.945 92.4857 275.897 93.7657L275.873 94.6057L275.897 95.4457C275.945 96.7257 276.265 97.6777 276.857 98.3017C277.449 98.9257 278.249 99.2377 279.257 99.2377C280.041 99.2377 280.681 99.0777 281.177 98.7577C281.673 98.4217 282.065 97.8617 282.353 97.0777C282.433 96.8857 282.513 96.7577 282.593 96.6937C282.673 96.6137 282.793 96.5737 282.953 96.5737H284.009C284.153 96.5737 284.281 96.6297 284.393 96.7417C284.521 96.8537 284.577 96.9817 284.561 97.1257C284.529 97.7177 284.313 98.3177 283.913 98.9257C283.529 99.5337 282.937 100.046 282.137 100.462C281.353 100.878 280.385 101.086 279.233 101.086ZM290.893 101.086C290.109 101.086 289.381 100.926 288.709 100.606C288.053 100.286 287.525 99.8537 287.125 99.3097C286.741 98.7497 286.549 98.1337 286.549 97.4617C286.549 96.4057 286.981 95.5417 287.845 94.8697C288.709 94.1977 289.885 93.7497 291.373 93.5257L294.973 93.0217V92.3257C294.973 90.6777 294.021 89.8537 292.117 89.8537C291.381 89.8537 290.789 90.0057 290.341 90.3097C289.893 90.5977 289.565 90.9417 289.357 91.3417C289.293 91.5017 289.221 91.6137 289.141 91.6777C289.077 91.7257 288.981 91.7497 288.853 91.7497H287.917C287.773 91.7497 287.645 91.7017 287.533 91.6057C287.437 91.4937 287.389 91.3657 287.389 91.2217C287.389 90.8537 287.557 90.4297 287.893 89.9497C288.245 89.4537 288.781 89.0297 289.501 88.6777C290.221 88.3097 291.101 88.1257 292.141 88.1257C293.933 88.1257 295.213 88.5417 295.981 89.3737C296.765 90.2057 297.157 91.2457 297.157 92.4937V100.294C297.157 100.454 297.101 100.59 296.989 100.702C296.893 100.798 296.765 100.846 296.605 100.846H295.549C295.389 100.846 295.261 100.798 295.165 100.702C295.069 100.59 295.021 100.454 295.021 100.294V99.2377C294.669 99.7657 294.157 100.206 293.485 100.558C292.813 100.91 291.949 101.086 290.893 101.086ZM291.373 99.3337C292.429 99.3337 293.293 98.9897 293.965 98.3017C294.637 97.6137 294.973 96.6137 294.973 95.3017V94.6297L292.165 95.0377C291.013 95.1977 290.141 95.4697 289.549 95.8537C288.957 96.2377 288.661 96.7177 288.661 97.2937C288.661 97.9497 288.925 98.4537 289.453 98.8057C289.997 99.1577 290.637 99.3337 291.373 99.3337ZM301.184 100.846C301.024 100.846 300.888 100.798 300.776 100.702C300.68 100.59 300.632 100.454 300.632 100.294V88.9177C300.632 88.7577 300.68 88.6297 300.776 88.5337C300.888 88.4217 301.024 88.3657 301.184 88.3657H302.216C302.392 88.3657 302.528 88.4137 302.624 88.5097C302.72 88.6057 302.768 88.7417 302.768 88.9177V89.9737C303.248 89.3817 303.8 88.9257 304.424 88.6057C305.064 88.2857 305.856 88.1257 306.8 88.1257C308.336 88.1257 309.528 88.6217 310.376 89.6137C311.224 90.5897 311.648 91.8857 311.648 93.5017V100.294C311.648 100.454 311.592 100.59 311.48 100.702C311.384 100.798 311.256 100.846 311.096 100.846H309.992C309.832 100.846 309.696 100.798 309.584 100.702C309.488 100.59 309.44 100.454 309.44 100.294V93.6457C309.44 92.4937 309.16 91.5977 308.6 90.9577C308.04 90.3177 307.24 89.9977 306.2 89.9977C305.176 89.9977 304.36 90.3257 303.752 90.9817C303.144 91.6217 302.84 92.5097 302.84 93.6457V100.294C302.84 100.454 302.784 100.59 302.672 100.702C302.576 100.798 302.448 100.846 302.288 100.846H301.184ZM321.599 100.846C321.439 100.846 321.303 100.798 321.191 100.702C321.095 100.59 321.047 100.454 321.047 100.294V84.3577C321.047 84.1817 321.095 84.0457 321.191 83.9497C321.303 83.8537 321.439 83.8057 321.599 83.8057H322.703C322.879 83.8057 323.015 83.8537 323.111 83.9497C323.207 84.0457 323.255 84.1817 323.255 84.3577V89.9497C323.719 89.3577 324.263 88.9097 324.887 88.6057C325.527 88.2857 326.311 88.1257 327.239 88.1257C328.775 88.1257 329.967 88.6217 330.815 89.6137C331.679 90.5897 332.111 91.8857 332.111 93.5017V100.294C332.111 100.454 332.055 100.59 331.943 100.702C331.847 100.798 331.719 100.846 331.559 100.846H330.431C330.271 100.846 330.135 100.798 330.023 100.702C329.927 100.59 329.879 100.454 329.879 100.294V93.6457C329.879 92.4937 329.599 91.5977 329.039 90.9577C328.479 90.3177 327.671 89.9977 326.615 89.9977C325.591 89.9977 324.775 90.3257 324.167 90.9817C323.559 91.6217 323.255 92.5097 323.255 93.6457V100.294C323.255 100.454 323.199 100.59 323.087 100.702C322.991 100.798 322.863 100.846 322.703 100.846H321.599ZM340.545 101.086C338.913 101.086 337.609 100.582 336.633 99.5737C335.657 98.5497 335.121 97.1577 335.025 95.3977L335.001 94.5817L335.025 93.7897C335.121 92.0617 335.657 90.6857 336.633 89.6617C337.609 88.6377 338.913 88.1257 340.545 88.1257C342.305 88.1257 343.665 88.6857 344.625 89.8057C345.601 90.9257 346.089 92.4457 346.089 94.3657V94.7977C346.089 94.9577 346.033 95.0937 345.921 95.2057C345.825 95.3017 345.697 95.3497 345.537 95.3497H337.209V95.5657C337.257 96.6057 337.577 97.4937 338.169 98.2297C338.761 98.9657 339.545 99.3337 340.521 99.3337C341.273 99.3337 341.881 99.1897 342.345 98.9017C342.825 98.5977 343.185 98.2857 343.425 97.9657C343.569 97.7737 343.681 97.6617 343.761 97.6297C343.841 97.5817 343.977 97.5577 344.169 97.5577H345.225C345.369 97.5577 345.489 97.5977 345.585 97.6777C345.697 97.7577 345.753 97.8617 345.753 97.9897C345.753 98.3417 345.537 98.7657 345.105 99.2617C344.673 99.7577 344.057 100.19 343.257 100.558C342.473 100.91 341.569 101.086 340.545 101.086ZM343.905 93.7177V93.6457C343.905 92.5257 343.601 91.6137 342.993 90.9097C342.385 90.2057 341.569 89.8537 340.545 89.8537C339.505 89.8537 338.689 90.2057 338.097 90.9097C337.505 91.6137 337.209 92.5257 337.209 93.6457V93.7177H343.905ZM349.583 100.846C349.423 100.846 349.287 100.798 349.175 100.702C349.079 100.59 349.031 100.454 349.031 100.294V84.3577C349.031 84.1817 349.079 84.0457 349.175 83.9497C349.287 83.8537 349.423 83.8057 349.583 83.8057H350.639C350.799 83.8057 350.927 83.8617 351.023 83.9737C351.135 84.0697 351.191 84.1977 351.191 84.3577V100.294C351.191 100.454 351.135 100.59 351.023 100.702C350.927 100.798 350.799 100.846 350.639 100.846H349.583ZM355.372 105.406C355.212 105.406 355.076 105.358 354.964 105.262C354.868 105.166 354.82 105.03 354.82 104.854V88.9177C354.82 88.7417 354.868 88.6057 354.964 88.5097C355.076 88.4137 355.212 88.3657 355.372 88.3657H356.38C356.556 88.3657 356.692 88.4137 356.788 88.5097C356.884 88.6057 356.932 88.7417 356.932 88.9177V89.9737C357.86 88.7417 359.18 88.1257 360.892 88.1257C362.572 88.1257 363.828 88.6617 364.66 89.7337C365.508 90.7897 365.956 92.1417 366.004 93.7897C366.02 93.9657 366.028 94.2377 366.028 94.6057C366.028 94.9737 366.02 95.2457 366.004 95.4217C365.956 97.0537 365.508 98.4057 364.66 99.4777C363.828 100.55 362.572 101.086 360.892 101.086C359.18 101.086 357.884 100.478 357.004 99.2617V104.854C357.004 105.014 356.948 105.142 356.836 105.238C356.74 105.35 356.612 105.406 356.452 105.406H355.372ZM360.436 99.2137C361.588 99.2137 362.428 98.8537 362.956 98.1337C363.484 97.4137 363.772 96.4697 363.82 95.3017C363.836 95.1417 363.844 94.9097 363.844 94.6057C363.844 91.5337 362.708 89.9977 360.436 89.9977C359.316 89.9977 358.468 90.3737 357.892 91.1257C357.332 91.8617 357.036 92.7337 357.004 93.7417C356.988 93.9177 356.98 94.2297 356.98 94.6777C356.98 95.1257 356.988 95.4377 357.004 95.6137C357.036 96.5897 357.34 97.4377 357.916 98.1577C358.508 98.8617 359.348 99.2137 360.436 99.2137ZM376.48 105.406C376.336 105.406 376.216 105.358 376.12 105.262C376.024 105.166 375.976 105.054 375.976 104.926C375.976 104.878 376.016 104.734 376.096 104.494L377.968 100.102L373.384 89.2777C373.288 89.0857 373.24 88.9497 373.24 88.8697C373.256 88.7257 373.312 88.6057 373.408 88.5097C373.504 88.4137 373.616 88.3657 373.744 88.3657H374.848C375.104 88.3657 375.296 88.4937 375.424 88.7497L379.12 97.5817L382.912 88.7497C383.04 88.4937 383.232 88.3657 383.488 88.3657H384.568C384.696 88.3657 384.808 88.4137 384.904 88.5097C385 88.6057 385.048 88.7177 385.048 88.8457C385.048 88.9577 385.008 89.1017 384.928 89.2777L378.136 105.022C378.056 105.15 377.968 105.246 377.872 105.31C377.792 105.374 377.68 105.406 377.536 105.406H376.48ZM392.11 101.086C390.35 101.086 388.99 100.59 388.03 99.5977C387.086 98.6057 386.582 97.2857 386.518 95.6377L386.494 94.6057L386.518 93.5737C386.582 91.9257 387.094 90.6057 388.054 89.6137C389.03 88.6217 390.382 88.1257 392.11 88.1257C393.838 88.1257 395.182 88.6217 396.142 89.6137C397.118 90.6057 397.638 91.9257 397.702 93.5737C397.734 93.9257 397.75 94.2697 397.75 94.6057C397.75 94.9417 397.734 95.2857 397.702 95.6377C397.638 97.2857 397.126 98.6057 396.166 99.5977C395.222 100.59 393.87 101.086 392.11 101.086ZM392.11 99.2857C393.134 99.2857 393.942 98.9657 394.534 98.3257C395.142 97.6697 395.47 96.7337 395.518 95.5177C395.534 95.3577 395.542 95.0537 395.542 94.6057C395.542 94.1577 395.534 93.8537 395.518 93.6937C395.47 92.4777 395.142 91.5497 394.534 90.9097C393.942 90.2537 393.134 89.9257 392.11 89.9257C391.086 89.9257 390.27 90.2537 389.662 90.9097C389.07 91.5497 388.75 92.4777 388.702 93.6937L388.678 94.6057L388.702 95.5177C388.75 96.7337 389.07 97.6697 389.662 98.3257C390.27 98.9657 391.086 99.2857 392.11 99.2857ZM405.436 101.086C403.916 101.086 402.74 100.598 401.908 99.6217C401.076 98.6297 400.66 97.3177 400.66 95.6857V88.9177C400.66 88.7577 400.708 88.6297 400.804 88.5337C400.916 88.4217 401.052 88.3657 401.212 88.3657H402.316C402.476 88.3657 402.604 88.4217 402.7 88.5337C402.812 88.6297 402.868 88.7577 402.868 88.9177V95.5657C402.868 97.9977 403.924 99.2137 406.036 99.2137C407.06 99.2137 407.868 98.8937 408.46 98.2537C409.068 97.5977 409.372 96.7017 409.372 95.5657V88.9177C409.372 88.7577 409.42 88.6297 409.516 88.5337C409.628 88.4217 409.764 88.3657 409.924 88.3657H411.028C411.188 88.3657 411.316 88.4217 411.412 88.5337C411.524 88.6297 411.58 88.7577 411.58 88.9177V100.294C411.58 100.454 411.524 100.59 411.412 100.702C411.316 100.798 411.188 100.846 411.028 100.846H409.996C409.836 100.846 409.7 100.798 409.588 100.702C409.492 100.59 409.444 100.454 409.444 100.294V99.2137C408.98 99.8377 408.436 100.31 407.812 100.63C407.188 100.934 406.396 101.086 405.436 101.086ZM425.637 101.086C423.957 101.086 422.693 100.542 421.845 99.4537C421.013 98.3657 420.565 96.9897 420.501 95.3257L420.477 94.6057L420.501 93.8857C420.565 92.2377 421.021 90.8697 421.869 89.7817C422.717 88.6777 423.973 88.1257 425.637 88.1257C427.301 88.1257 428.597 88.7177 429.525 89.9017V84.3577C429.525 84.1977 429.573 84.0697 429.669 83.9737C429.781 83.8617 429.917 83.8057 430.077 83.8057H431.157C431.317 83.8057 431.445 83.8617 431.541 83.9737C431.653 84.0697 431.709 84.1977 431.709 84.3577V100.294C431.709 100.454 431.653 100.59 431.541 100.702C431.445 100.798 431.317 100.846 431.157 100.846H430.125C429.965 100.846 429.837 100.798 429.741 100.702C429.645 100.59 429.597 100.454 429.597 100.294V99.2617C428.685 100.478 427.365 101.086 425.637 101.086ZM426.093 99.2137C427.213 99.2137 428.053 98.8457 428.613 98.1097C429.173 97.3577 429.477 96.4697 429.525 95.4457C429.541 95.2697 429.549 94.9657 429.549 94.5337C429.549 94.0857 429.541 93.7737 429.525 93.5977C429.493 92.6217 429.181 91.7817 428.589 91.0777C428.013 90.3577 427.181 89.9977 426.093 89.9977C424.941 89.9977 424.101 90.3577 423.573 91.0777C423.045 91.7977 422.757 92.7417 422.709 93.9097L422.685 94.6057C422.685 97.6777 423.821 99.2137 426.093 99.2137ZM435.687 86.0137C435.527 86.0137 435.391 85.9657 435.279 85.8697C435.183 85.7577 435.135 85.6217 435.135 85.4617V84.2137C435.135 84.0537 435.183 83.9177 435.279 83.8057C435.391 83.6937 435.527 83.6377 435.687 83.6377H437.103C437.263 83.6377 437.399 83.6937 437.511 83.8057C437.623 83.9177 437.679 84.0537 437.679 84.2137V85.4617C437.679 85.6217 437.623 85.7577 437.511 85.8697C437.399 85.9657 437.263 86.0137 437.103 86.0137H435.687ZM435.879 100.846C435.719 100.846 435.583 100.798 435.471 100.702C435.375 100.59 435.327 100.454 435.327 100.294V88.9177C435.327 88.7577 435.375 88.6297 435.471 88.5337C435.583 88.4217 435.719 88.3657 435.879 88.3657H436.935C437.095 88.3657 437.223 88.4217 437.319 88.5337C437.431 88.6297 437.487 88.7577 437.487 88.9177V100.294C437.487 100.454 437.431 100.59 437.319 100.702C437.223 100.798 437.095 100.846 436.935 100.846H435.879ZM445.365 101.086C444.261 101.086 443.325 100.91 442.557 100.558C441.805 100.19 441.245 99.7737 440.877 99.3097C440.509 98.8457 440.325 98.4617 440.325 98.1577C440.325 97.9977 440.381 97.8777 440.493 97.7977C440.605 97.7017 440.725 97.6537 440.853 97.6537H441.861C441.957 97.6537 442.029 97.6697 442.077 97.7017C442.141 97.7337 442.221 97.8057 442.317 97.9177C442.685 98.3657 443.093 98.7177 443.541 98.9737C444.005 99.2297 444.621 99.3577 445.389 99.3577C446.253 99.3577 446.941 99.1977 447.453 98.8777C447.981 98.5577 448.245 98.0937 448.245 97.4857C448.245 97.0857 448.133 96.7657 447.909 96.5257C447.685 96.2857 447.309 96.0697 446.781 95.8777C446.269 95.6857 445.501 95.4777 444.477 95.2537C443.085 94.9497 442.101 94.5097 441.525 93.9337C440.949 93.3577 440.661 92.6137 440.661 91.7017C440.661 91.1097 440.837 90.5417 441.189 89.9977C441.541 89.4377 442.061 88.9897 442.749 88.6537C443.453 88.3017 444.285 88.1257 445.245 88.1257C446.253 88.1257 447.109 88.2937 447.813 88.6297C448.533 88.9657 449.069 89.3577 449.421 89.8057C449.789 90.2537 449.973 90.6297 449.973 90.9337C449.973 91.0777 449.917 91.1977 449.805 91.2937C449.709 91.3897 449.589 91.4377 449.445 91.4377H448.533C448.309 91.4377 448.149 91.3497 448.053 91.1737C447.781 90.8697 447.549 90.6377 447.357 90.4777C447.181 90.3017 446.917 90.1577 446.565 90.0457C446.213 89.9177 445.773 89.8537 445.245 89.8537C444.461 89.8537 443.861 90.0217 443.445 90.3577C443.029 90.6777 442.821 91.1097 442.821 91.6537C442.821 91.9897 442.909 92.2777 443.085 92.5177C443.261 92.7417 443.597 92.9577 444.093 93.1657C444.589 93.3577 445.325 93.5577 446.301 93.7657C447.821 94.0857 448.893 94.5417 449.517 95.1337C450.157 95.7257 450.477 96.4857 450.477 97.4137C450.477 98.1017 450.277 98.7257 449.877 99.2857C449.493 99.8457 448.909 100.286 448.125 100.606C447.357 100.926 446.437 101.086 445.365 101.086ZM458.272 101.086C456.56 101.086 455.224 100.606 454.264 99.6457C453.304 98.6697 452.8 97.3097 452.752 95.5657L452.728 94.6057L452.752 93.6457C452.8 91.9017 453.304 90.5497 454.264 89.5897C455.224 88.6137 456.56 88.1257 458.272 88.1257C459.424 88.1257 460.392 88.3337 461.176 88.7497C461.976 89.1497 462.568 89.6537 462.952 90.2617C463.352 90.8697 463.568 91.4777 463.6 92.0857C463.616 92.2297 463.56 92.3577 463.432 92.4697C463.32 92.5817 463.192 92.6377 463.048 92.6377H461.992C461.832 92.6377 461.712 92.6057 461.632 92.5417C461.552 92.4617 461.472 92.3257 461.392 92.1337C461.104 91.3497 460.704 90.7977 460.192 90.4777C459.696 90.1417 459.064 89.9737 458.296 89.9737C457.288 89.9737 456.488 90.2857 455.896 90.9097C455.304 91.5337 454.984 92.4857 454.936 93.7657L454.912 94.6057L454.936 95.4457C454.984 96.7257 455.304 97.6777 455.896 98.3017C456.488 98.9257 457.288 99.2377 458.296 99.2377C459.08 99.2377 459.72 99.0777 460.216 98.7577C460.712 98.4217 461.104 97.8617 461.392 97.0777C461.472 96.8857 461.552 96.7577 461.632 96.6937C461.712 96.6137 461.832 96.5737 461.992 96.5737H463.048C463.192 96.5737 463.32 96.6297 463.432 96.7417C463.56 96.8537 463.616 96.9817 463.6 97.1257C463.568 97.7177 463.352 98.3177 462.952 98.9257C462.568 99.5337 461.976 100.046 461.176 100.462C460.392 100.878 459.424 101.086 458.272 101.086ZM471.54 101.086C469.78 101.086 468.42 100.59 467.46 99.5977C466.516 98.6057 466.012 97.2857 465.948 95.6377L465.924 94.6057L465.948 93.5737C466.012 91.9257 466.524 90.6057 467.484 89.6137C468.46 88.6217 469.812 88.1257 471.54 88.1257C473.268 88.1257 474.612 88.6217 475.572 89.6137C476.548 90.6057 477.068 91.9257 477.132 93.5737C477.164 93.9257 477.18 94.2697 477.18 94.6057C477.18 94.9417 477.164 95.2857 477.132 95.6377C477.068 97.2857 476.556 98.6057 475.596 99.5977C474.652 100.59 473.3 101.086 471.54 101.086ZM471.54 99.2857C472.564 99.2857 473.372 98.9657 473.964 98.3257C474.572 97.6697 474.9 96.7337 474.948 95.5177C474.964 95.3577 474.972 95.0537 474.972 94.6057C474.972 94.1577 474.964 93.8537 474.948 93.6937C474.9 92.4777 474.572 91.5497 473.964 90.9097C473.372 90.2537 472.564 89.9257 471.54 89.9257C470.516 89.9257 469.7 90.2537 469.092 90.9097C468.5 91.5497 468.18 92.4777 468.132 93.6937L468.108 94.6057L468.132 95.5177C468.18 96.7337 468.5 97.6697 469.092 98.3257C469.7 98.9657 470.516 99.2857 471.54 99.2857ZM484.109 100.846C483.693 100.846 483.397 100.646 483.221 100.246L478.757 89.1097C478.741 89.0617 478.733 88.9817 478.733 88.8697C478.733 88.7257 478.781 88.6057 478.877 88.5097C478.973 88.4137 479.085 88.3657 479.213 88.3657H480.317C480.573 88.3657 480.765 88.4937 480.893 88.7497L484.589 98.3257L488.285 88.7497C488.317 88.6537 488.381 88.5657 488.477 88.4857C488.589 88.4057 488.717 88.3657 488.861 88.3657H489.965C490.093 88.3657 490.205 88.4137 490.301 88.5097C490.397 88.6057 490.445 88.7257 490.445 88.8697L490.397 89.1097L485.957 100.246C485.781 100.646 485.485 100.846 485.069 100.846H484.109ZM497.506 101.086C495.874 101.086 494.57 100.582 493.594 99.5737C492.618 98.5497 492.082 97.1577 491.986 95.3977L491.962 94.5817L491.986 93.7897C492.082 92.0617 492.618 90.6857 493.594 89.6617C494.57 88.6377 495.874 88.1257 497.506 88.1257C499.266 88.1257 500.626 88.6857 501.586 89.8057C502.562 90.9257 503.05 92.4457 503.05 94.3657V94.7977C503.05 94.9577 502.994 95.0937 502.882 95.2057C502.786 95.3017 502.658 95.3497 502.498 95.3497H494.17V95.5657C494.218 96.6057 494.538 97.4937 495.13 98.2297C495.722 98.9657 496.506 99.3337 497.482 99.3337C498.234 99.3337 498.842 99.1897 499.306 98.9017C499.786 98.5977 500.146 98.2857 500.386 97.9657C500.53 97.7737 500.642 97.6617 500.722 97.6297C500.802 97.5817 500.938 97.5577 501.13 97.5577H502.186C502.33 97.5577 502.45 97.5977 502.546 97.6777C502.658 97.7577 502.714 97.8617 502.714 97.9897C502.714 98.3417 502.498 98.7657 502.066 99.2617C501.634 99.7577 501.018 100.19 500.218 100.558C499.434 100.91 498.53 101.086 497.506 101.086ZM500.866 93.7177V93.6457C500.866 92.5257 500.562 91.6137 499.954 90.9097C499.346 90.2057 498.53 89.8537 497.506 89.8537C496.466 89.8537 495.65 90.2057 495.058 90.9097C494.466 91.6137 494.17 92.5257 494.17 93.6457V93.7177H500.866ZM506.52 100.846C506.36 100.846 506.224 100.798 506.112 100.702C506.016 100.59 505.968 100.454 505.968 100.294V88.9417C505.968 88.7817 506.016 88.6457 506.112 88.5337C506.224 88.4217 506.36 88.3657 506.52 88.3657H507.528C507.704 88.3657 507.84 88.4217 507.936 88.5337C508.048 88.6297 508.104 88.7657 508.104 88.9417V89.9977C508.76 88.9097 509.872 88.3657 511.44 88.3657H512.376C512.552 88.3657 512.688 88.4137 512.784 88.5097C512.88 88.6057 512.928 88.7417 512.928 88.9177V89.8057C512.928 89.9657 512.88 90.1017 512.784 90.2137C512.688 90.3097 512.552 90.3577 512.376 90.3577H511.008C510.128 90.3577 509.432 90.6137 508.92 91.1257C508.424 91.6377 508.176 92.3337 508.176 93.2137V100.294C508.176 100.454 508.12 100.59 508.008 100.702C507.896 100.798 507.76 100.846 507.6 100.846H506.52ZM64.77 132.846C64.61 132.846 64.474 132.798 64.362 132.702C64.266 132.59 64.218 132.454 64.218 132.294V120.942C64.218 120.782 64.266 120.646 64.362 120.534C64.474 120.422 64.61 120.366 64.77 120.366H65.778C65.954 120.366 66.09 120.422 66.186 120.534C66.298 120.63 66.354 120.766 66.354 120.942V121.998C67.01 120.91 68.122 120.366 69.69 120.366H70.626C70.802 120.366 70.938 120.414 71.034 120.51C71.13 120.606 71.178 120.742 71.178 120.918V121.806C71.178 121.966 71.13 122.102 71.034 122.214C70.938 122.31 70.802 122.358 70.626 122.358H69.258C68.378 122.358 67.682 122.614 67.17 123.126C66.674 123.638 66.426 124.334 66.426 125.214V132.294C66.426 132.454 66.37 132.59 66.258 132.702C66.146 132.798 66.01 132.846 65.85 132.846H64.77ZM77.951 133.086C76.319 133.086 75.015 132.582 74.039 131.574C73.063 130.55 72.527 129.158 72.431 127.398L72.407 126.582L72.431 125.79C72.527 124.062 73.063 122.686 74.039 121.662C75.015 120.638 76.319 120.126 77.951 120.126C79.711 120.126 81.071 120.686 82.031 121.806C83.007 122.926 83.495 124.446 83.495 126.366V126.798C83.495 126.958 83.439 127.094 83.327 127.206C83.231 127.302 83.103 127.35 82.943 127.35H74.615V127.566C74.663 128.606 74.983 129.494 75.575 130.23C76.167 130.966 76.951 131.334 77.927 131.334C78.679 131.334 79.287 131.19 79.751 130.902C80.231 130.598 80.591 130.286 80.831 129.966C80.975 129.774 81.087 129.662 81.167 129.63C81.247 129.582 81.383 129.558 81.575 129.558H82.631C82.775 129.558 82.895 129.598 82.991 129.678C83.103 129.758 83.159 129.862 83.159 129.99C83.159 130.342 82.943 130.766 82.511 131.262C82.079 131.758 81.463 132.19 80.663 132.558C79.879 132.91 78.975 133.086 77.951 133.086ZM81.311 125.718V125.646C81.311 124.526 81.007 123.614 80.399 122.91C79.791 122.206 78.975 121.854 77.951 121.854C76.911 121.854 76.095 122.206 75.503 122.91C74.911 123.614 74.615 124.526 74.615 125.646V125.718H81.311ZM86.9893 132.846C86.8293 132.846 86.6933 132.798 86.5813 132.702C86.4853 132.59 86.4373 132.454 86.4373 132.294V116.358C86.4373 116.182 86.4853 116.046 86.5813 115.95C86.6933 115.854 86.8293 115.806 86.9893 115.806H88.0453C88.2053 115.806 88.3333 115.862 88.4293 115.974C88.5413 116.07 88.5973 116.198 88.5973 116.358V132.294C88.5973 132.454 88.5413 132.59 88.4293 132.702C88.3333 132.798 88.2053 132.846 88.0453 132.846H86.9893ZM95.6583 133.086C94.8743 133.086 94.1463 132.926 93.4743 132.606C92.8183 132.286 92.2903 131.854 91.8903 131.31C91.5063 130.75 91.3143 130.134 91.3143 129.462C91.3143 128.406 91.7463 127.542 92.6103 126.87C93.4743 126.198 94.6503 125.75 96.1383 125.526L99.7383 125.022V124.326C99.7383 122.678 98.7863 121.854 96.8823 121.854C96.1463 121.854 95.5543 122.006 95.1063 122.31C94.6583 122.598 94.3303 122.942 94.1223 123.342C94.0583 123.502 93.9863 123.614 93.9063 123.678C93.8423 123.726 93.7463 123.75 93.6183 123.75H92.6823C92.5383 123.75 92.4103 123.702 92.2983 123.606C92.2023 123.494 92.1543 123.366 92.1543 123.222C92.1543 122.854 92.3223 122.43 92.6583 121.95C93.0103 121.454 93.5463 121.03 94.2663 120.678C94.9863 120.31 95.8663 120.126 96.9063 120.126C98.6983 120.126 99.9783 120.542 100.746 121.374C101.53 122.206 101.922 123.246 101.922 124.494V132.294C101.922 132.454 101.866 132.59 101.754 132.702C101.658 132.798 101.53 132.846 101.37 132.846H100.314C100.154 132.846 100.026 132.798 99.9303 132.702C99.8343 132.59 99.7863 132.454 99.7863 132.294V131.238C99.4343 131.766 98.9223 132.206 98.2503 132.558C97.5783 132.91 96.7143 133.086 95.6583 133.086ZM96.1383 131.334C97.1943 131.334 98.0583 130.99 98.7303 130.302C99.4023 129.614 99.7383 128.614 99.7383 127.302V126.63L96.9303 127.038C95.7783 127.198 94.9063 127.47 94.3143 127.854C93.7223 128.238 93.4263 128.718 93.4263 129.294C93.4263 129.95 93.6903 130.454 94.2183 130.806C94.7623 131.158 95.4023 131.334 96.1383 131.334ZM110.08 132.846C107.6 132.846 106.36 131.446 106.36 128.646V122.214H104.464C104.304 122.214 104.176 122.166 104.08 122.07C103.984 121.974 103.936 121.846 103.936 121.686V120.918C103.936 120.758 103.984 120.63 104.08 120.534C104.176 120.422 104.304 120.366 104.464 120.366H106.36V116.358C106.36 116.198 106.408 116.07 106.504 115.974C106.6 115.862 106.728 115.806 106.888 115.806H107.944C108.104 115.806 108.232 115.862 108.328 115.974C108.44 116.07 108.496 116.198 108.496 116.358V120.366H111.472C111.632 120.366 111.76 120.422 111.856 120.534C111.968 120.63 112.024 120.758 112.024 120.918V121.686C112.024 121.846 111.968 121.974 111.856 122.07C111.76 122.166 111.632 122.214 111.472 122.214H108.496V128.478C108.496 129.294 108.624 129.91 108.88 130.326C109.152 130.742 109.608 130.95 110.248 130.95H111.712C111.872 130.95 112 131.006 112.096 131.118C112.192 131.214 112.24 131.342 112.24 131.502V132.294C112.24 132.454 112.192 132.59 112.096 132.702C112 132.798 111.872 132.846 111.712 132.846H110.08ZM119.529 133.086C117.897 133.086 116.593 132.582 115.617 131.574C114.641 130.55 114.105 129.158 114.009 127.398L113.985 126.582L114.009 125.79C114.105 124.062 114.641 122.686 115.617 121.662C116.593 120.638 117.897 120.126 119.529 120.126C121.289 120.126 122.649 120.686 123.609 121.806C124.585 122.926 125.073 124.446 125.073 126.366V126.798C125.073 126.958 125.017 127.094 124.905 127.206C124.809 127.302 124.681 127.35 124.521 127.35H116.193V127.566C116.241 128.606 116.561 129.494 117.153 130.23C117.745 130.966 118.529 131.334 119.505 131.334C120.257 131.334 120.865 131.19 121.329 130.902C121.809 130.598 122.169 130.286 122.409 129.966C122.553 129.774 122.665 129.662 122.745 129.63C122.825 129.582 122.961 129.558 123.153 129.558H124.209C124.353 129.558 124.473 129.598 124.569 129.678C124.681 129.758 124.737 129.862 124.737 129.99C124.737 130.342 124.521 130.766 124.089 131.262C123.657 131.758 123.041 132.19 122.241 132.558C121.457 132.91 120.553 133.086 119.529 133.086ZM122.889 125.718V125.646C122.889 124.526 122.585 123.614 121.977 122.91C121.369 122.206 120.553 121.854 119.529 121.854C118.489 121.854 117.673 122.206 117.081 122.91C116.489 123.614 116.193 124.526 116.193 125.646V125.718H122.889ZM132.551 133.086C130.871 133.086 129.607 132.542 128.759 131.454C127.927 130.366 127.479 128.99 127.415 127.326L127.391 126.606L127.415 125.886C127.479 124.238 127.935 122.87 128.783 121.782C129.631 120.678 130.887 120.126 132.551 120.126C134.215 120.126 135.511 120.718 136.439 121.902V116.358C136.439 116.198 136.487 116.07 136.583 115.974C136.695 115.862 136.831 115.806 136.991 115.806H138.071C138.231 115.806 138.359 115.862 138.455 115.974C138.567 116.07 138.623 116.198 138.623 116.358V132.294C138.623 132.454 138.567 132.59 138.455 132.702C138.359 132.798 138.231 132.846 138.071 132.846H137.039C136.879 132.846 136.751 132.798 136.655 132.702C136.559 132.59 136.511 132.454 136.511 132.294V131.262C135.599 132.478 134.279 133.086 132.551 133.086ZM133.007 131.214C134.127 131.214 134.967 130.846 135.527 130.11C136.087 129.358 136.391 128.47 136.439 127.446C136.455 127.27 136.463 126.966 136.463 126.534C136.463 126.086 136.455 125.774 136.439 125.598C136.407 124.622 136.095 123.782 135.503 123.078C134.927 122.358 134.095 121.998 133.007 121.998C131.855 121.998 131.015 122.358 130.487 123.078C129.959 123.798 129.671 124.742 129.623 125.91L129.599 126.606C129.599 129.678 130.735 131.214 133.007 131.214ZM150.897 132.846C150.673 132.846 150.505 132.798 150.393 132.702C150.281 132.606 150.193 132.454 150.129 132.246L146.721 121.11L146.673 120.87C146.673 120.726 146.721 120.606 146.817 120.51C146.913 120.414 147.033 120.366 147.177 120.366H148.161C148.321 120.366 148.449 120.414 148.545 120.51C148.657 120.59 148.721 120.67 148.737 120.75L151.449 129.918L154.329 120.87C154.361 120.742 154.433 120.63 154.545 120.534C154.657 120.422 154.809 120.366 155.001 120.366H155.769C155.961 120.366 156.113 120.422 156.225 120.534C156.337 120.63 156.409 120.742 156.441 120.87L159.321 129.918L162.033 120.75C162.049 120.67 162.105 120.59 162.201 120.51C162.313 120.414 162.449 120.366 162.609 120.366H163.593C163.737 120.366 163.857 120.414 163.953 120.51C164.049 120.606 164.097 120.726 164.097 120.87L164.049 121.11L160.641 132.246C160.577 132.454 160.489 132.606 160.377 132.702C160.265 132.798 160.097 132.846 159.873 132.846H159.009C158.593 132.846 158.321 132.646 158.193 132.246L155.385 123.558L152.577 132.246C152.449 132.646 152.177 132.846 151.761 132.846H150.897ZM171.516 133.086C169.756 133.086 168.396 132.59 167.436 131.598C166.492 130.606 165.988 129.286 165.924 127.638L165.9 126.606L165.924 125.574C165.988 123.926 166.5 122.606 167.46 121.614C168.436 120.622 169.788 120.126 171.516 120.126C173.244 120.126 174.588 120.622 175.548 121.614C176.524 122.606 177.044 123.926 177.108 125.574C177.14 125.926 177.156 126.27 177.156 126.606C177.156 126.942 177.14 127.286 177.108 127.638C177.044 129.286 176.532 130.606 175.572 131.598C174.628 132.59 173.276 133.086 171.516 133.086ZM171.516 131.286C172.54 131.286 173.348 130.966 173.94 130.326C174.548 129.67 174.876 128.734 174.924 127.518C174.94 127.358 174.948 127.054 174.948 126.606C174.948 126.158 174.94 125.854 174.924 125.694C174.876 124.478 174.548 123.55 173.94 122.91C173.348 122.254 172.54 121.926 171.516 121.926C170.492 121.926 169.676 122.254 169.068 122.91C168.476 123.55 168.156 124.478 168.108 125.694L168.084 126.606L168.108 127.518C168.156 128.734 168.476 129.67 169.068 130.326C169.676 130.966 170.492 131.286 171.516 131.286ZM180.739 132.846C180.579 132.846 180.443 132.798 180.331 132.702C180.235 132.59 180.187 132.454 180.187 132.294V120.942C180.187 120.782 180.235 120.646 180.331 120.534C180.443 120.422 180.579 120.366 180.739 120.366H181.747C181.923 120.366 182.059 120.422 182.155 120.534C182.267 120.63 182.323 120.766 182.323 120.942V121.998C182.979 120.91 184.091 120.366 185.659 120.366H186.595C186.771 120.366 186.907 120.414 187.003 120.51C187.099 120.606 187.147 120.742 187.147 120.918V121.806C187.147 121.966 187.099 122.102 187.003 122.214C186.907 122.31 186.771 122.358 186.595 122.358H185.227C184.347 122.358 183.651 122.614 183.139 123.126C182.643 123.638 182.395 124.334 182.395 125.214V132.294C182.395 132.454 182.339 132.59 182.227 132.702C182.115 132.798 181.979 132.846 181.819 132.846H180.739ZM193.512 133.086C191.832 133.086 190.568 132.542 189.72 131.454C188.888 130.366 188.44 128.99 188.376 127.326L188.352 126.606L188.376 125.886C188.44 124.238 188.896 122.87 189.744 121.782C190.592 120.678 191.848 120.126 193.512 120.126C195.176 120.126 196.472 120.718 197.4 121.902V116.358C197.4 116.198 197.448 116.07 197.544 115.974C197.656 115.862 197.792 115.806 197.952 115.806H199.032C199.192 115.806 199.32 115.862 199.416 115.974C199.528 116.07 199.584 116.198 199.584 116.358V132.294C199.584 132.454 199.528 132.59 199.416 132.702C199.32 132.798 199.192 132.846 199.032 132.846H198C197.84 132.846 197.712 132.798 197.616 132.702C197.52 132.59 197.472 132.454 197.472 132.294V131.262C196.56 132.478 195.24 133.086 193.512 133.086ZM193.968 131.214C195.088 131.214 195.928 130.846 196.488 130.11C197.048 129.358 197.352 128.47 197.4 127.446C197.416 127.27 197.424 126.966 197.424 126.534C197.424 126.086 197.416 125.774 197.4 125.598C197.368 124.622 197.056 123.782 196.464 123.078C195.888 122.358 195.056 121.998 193.968 121.998C192.816 121.998 191.976 122.358 191.448 123.078C190.92 123.798 190.632 124.742 190.584 125.91L190.56 126.606C190.56 129.678 191.696 131.214 193.968 131.214ZM207.474 133.086C206.37 133.086 205.434 132.91 204.666 132.558C203.914 132.19 203.354 131.774 202.986 131.31C202.618 130.846 202.434 130.462 202.434 130.158C202.434 129.998 202.49 129.878 202.602 129.798C202.714 129.702 202.834 129.654 202.962 129.654H203.97C204.066 129.654 204.138 129.67 204.186 129.702C204.25 129.734 204.33 129.806 204.426 129.918C204.794 130.366 205.202 130.718 205.65 130.974C206.114 131.23 206.73 131.358 207.498 131.358C208.362 131.358 209.05 131.198 209.562 130.878C210.09 130.558 210.354 130.094 210.354 129.486C210.354 129.086 210.242 128.766 210.018 128.526C209.794 128.286 209.418 128.07 208.89 127.878C208.378 127.686 207.61 127.478 206.586 127.254C205.194 126.95 204.21 126.51 203.634 125.934C203.058 125.358 202.77 124.614 202.77 123.702C202.77 123.11 202.946 122.542 203.298 121.998C203.65 121.438 204.17 120.99 204.858 120.654C205.562 120.302 206.394 120.126 207.354 120.126C208.362 120.126 209.218 120.294 209.922 120.63C210.642 120.966 211.178 121.358 211.53 121.806C211.898 122.254 212.082 122.63 212.082 122.934C212.082 123.078 212.026 123.198 211.914 123.294C211.818 123.39 211.698 123.438 211.554 123.438H210.642C210.418 123.438 210.258 123.35 210.162 123.174C209.89 122.87 209.658 122.638 209.466 122.478C209.29 122.302 209.026 122.158 208.674 122.046C208.322 121.918 207.882 121.854 207.354 121.854C206.57 121.854 205.97 122.022 205.554 122.358C205.138 122.678 204.93 123.11 204.93 123.654C204.93 123.99 205.018 124.278 205.194 124.518C205.37 124.742 205.706 124.958 206.202 125.166C206.698 125.358 207.434 125.558 208.41 125.766C209.93 126.086 211.002 126.542 211.626 127.134C212.266 127.726 212.586 128.486 212.586 129.414C212.586 130.102 212.386 130.726 211.986 131.286C211.602 131.846 211.018 132.286 210.234 132.606C209.466 132.926 208.546 133.086 207.474 133.086ZM225.58 132.846C223.1 132.846 221.86 131.446 221.86 128.646V122.214H219.964C219.804 122.214 219.676 122.166 219.58 122.07C219.484 121.974 219.436 121.846 219.436 121.686V120.918C219.436 120.758 219.484 120.63 219.58 120.534C219.676 120.422 219.804 120.366 219.964 120.366H221.86V116.358C221.86 116.198 221.908 116.07 222.004 115.974C222.1 115.862 222.228 115.806 222.388 115.806H223.444C223.604 115.806 223.732 115.862 223.828 115.974C223.94 116.07 223.996 116.198 223.996 116.358V120.366H226.972C227.132 120.366 227.26 120.422 227.356 120.534C227.468 120.63 227.524 120.758 227.524 120.918V121.686C227.524 121.846 227.468 121.974 227.356 122.07C227.26 122.166 227.132 122.214 226.972 122.214H223.996V128.478C223.996 129.294 224.124 129.91 224.38 130.326C224.652 130.742 225.108 130.95 225.748 130.95H227.212C227.372 130.95 227.5 131.006 227.596 131.118C227.692 131.214 227.74 131.342 227.74 131.502V132.294C227.74 132.454 227.692 132.59 227.596 132.702C227.5 132.798 227.372 132.846 227.212 132.846H225.58ZM230.661 132.846C230.501 132.846 230.365 132.798 230.253 132.702C230.157 132.59 230.109 132.454 230.109 132.294V116.358C230.109 116.182 230.157 116.046 230.253 115.95C230.365 115.854 230.501 115.806 230.661 115.806H231.765C231.941 115.806 232.077 115.854 232.173 115.95C232.269 116.046 232.317 116.182 232.317 116.358V121.95C232.781 121.358 233.325 120.91 233.949 120.606C234.589 120.286 235.373 120.126 236.301 120.126C237.837 120.126 239.029 120.622 239.877 121.614C240.741 122.59 241.173 123.886 241.173 125.502V132.294C241.173 132.454 241.117 132.59 241.005 132.702C240.909 132.798 240.781 132.846 240.621 132.846H239.493C239.333 132.846 239.197 132.798 239.085 132.702C238.989 132.59 238.941 132.454 238.941 132.294V125.646C238.941 124.494 238.661 123.598 238.101 122.958C237.541 122.318 236.733 121.998 235.677 121.998C234.653 121.998 233.837 122.326 233.229 122.982C232.621 123.622 232.317 124.51 232.317 125.646V132.294C232.317 132.454 232.261 132.59 232.149 132.702C232.053 132.798 231.925 132.846 231.765 132.846H230.661ZM248.119 133.086C247.335 133.086 246.607 132.926 245.935 132.606C245.279 132.286 244.751 131.854 244.351 131.31C243.967 130.75 243.775 130.134 243.775 129.462C243.775 128.406 244.207 127.542 245.071 126.87C245.935 126.198 247.111 125.75 248.599 125.526L252.199 125.022V124.326C252.199 122.678 251.247 121.854 249.343 121.854C248.607 121.854 248.015 122.006 247.567 122.31C247.119 122.598 246.791 122.942 246.583 123.342C246.519 123.502 246.447 123.614 246.367 123.678C246.303 123.726 246.207 123.75 246.079 123.75H245.143C244.999 123.75 244.871 123.702 244.759 123.606C244.663 123.494 244.615 123.366 244.615 123.222C244.615 122.854 244.783 122.43 245.119 121.95C245.471 121.454 246.007 121.03 246.727 120.678C247.447 120.31 248.327 120.126 249.367 120.126C251.159 120.126 252.439 120.542 253.207 121.374C253.991 122.206 254.383 123.246 254.383 124.494V132.294C254.383 132.454 254.327 132.59 254.215 132.702C254.119 132.798 253.991 132.846 253.831 132.846H252.775C252.615 132.846 252.487 132.798 252.391 132.702C252.295 132.59 252.247 132.454 252.247 132.294V131.238C251.895 131.766 251.383 132.206 250.711 132.558C250.039 132.91 249.175 133.086 248.119 133.086ZM248.599 131.334C249.655 131.334 250.519 130.99 251.191 130.302C251.863 129.614 252.199 128.614 252.199 127.302V126.63L249.391 127.038C248.239 127.198 247.367 127.47 246.775 127.854C246.183 128.238 245.887 128.718 245.887 129.294C245.887 129.95 246.151 130.454 246.679 130.806C247.223 131.158 247.863 131.334 248.599 131.334ZM262.541 132.846C260.061 132.846 258.821 131.446 258.821 128.646V122.214H256.925C256.765 122.214 256.637 122.166 256.541 122.07C256.445 121.974 256.397 121.846 256.397 121.686V120.918C256.397 120.758 256.445 120.63 256.541 120.534C256.637 120.422 256.765 120.366 256.925 120.366H258.821V116.358C258.821 116.198 258.869 116.07 258.965 115.974C259.061 115.862 259.189 115.806 259.349 115.806H260.405C260.565 115.806 260.693 115.862 260.789 115.974C260.901 116.07 260.957 116.198 260.957 116.358V120.366H263.933C264.093 120.366 264.221 120.422 264.317 120.534C264.429 120.63 264.485 120.758 264.485 120.918V121.686C264.485 121.846 264.429 121.974 264.317 122.07C264.221 122.166 264.093 122.214 263.933 122.214H260.957V128.478C260.957 129.294 261.085 129.91 261.341 130.326C261.613 130.742 262.069 130.95 262.709 130.95H264.173C264.333 130.95 264.461 131.006 264.557 131.118C264.653 131.214 264.701 131.342 264.701 131.502V132.294C264.701 132.454 264.653 132.59 264.557 132.702C264.461 132.798 264.333 132.846 264.173 132.846H262.541ZM274.48 137.406C274.336 137.406 274.216 137.358 274.12 137.262C274.024 137.166 273.976 137.054 273.976 136.926C273.976 136.878 274.016 136.734 274.096 136.494L275.968 132.102L271.384 121.278C271.288 121.086 271.24 120.95 271.24 120.87C271.256 120.726 271.312 120.606 271.408 120.51C271.504 120.414 271.616 120.366 271.744 120.366H272.848C273.104 120.366 273.296 120.494 273.424 120.75L277.12 129.582L280.912 120.75C281.04 120.494 281.232 120.366 281.488 120.366H282.568C282.696 120.366 282.808 120.414 282.904 120.51C283 120.606 283.048 120.718 283.048 120.846C283.048 120.958 283.008 121.102 282.928 121.278L276.136 137.022C276.056 137.15 275.968 137.246 275.872 137.31C275.792 137.374 275.68 137.406 275.536 137.406H274.48ZM290.11 133.086C288.35 133.086 286.99 132.59 286.03 131.598C285.086 130.606 284.582 129.286 284.518 127.638L284.494 126.606L284.518 125.574C284.582 123.926 285.094 122.606 286.054 121.614C287.03 120.622 288.382 120.126 290.11 120.126C291.838 120.126 293.182 120.622 294.142 121.614C295.118 122.606 295.638 123.926 295.702 125.574C295.734 125.926 295.75 126.27 295.75 126.606C295.75 126.942 295.734 127.286 295.702 127.638C295.638 129.286 295.126 130.606 294.166 131.598C293.222 132.59 291.87 133.086 290.11 133.086ZM290.11 131.286C291.134 131.286 291.942 130.966 292.534 130.326C293.142 129.67 293.47 128.734 293.518 127.518C293.534 127.358 293.542 127.054 293.542 126.606C293.542 126.158 293.534 125.854 293.518 125.694C293.47 124.478 293.142 123.55 292.534 122.91C291.942 122.254 291.134 121.926 290.11 121.926C289.086 121.926 288.27 122.254 287.662 122.91C287.07 123.55 286.75 124.478 286.702 125.694L286.678 126.606L286.702 127.518C286.75 128.734 287.07 129.67 287.662 130.326C288.27 130.966 289.086 131.286 290.11 131.286ZM303.436 133.086C301.916 133.086 300.74 132.598 299.908 131.622C299.076 130.63 298.66 129.318 298.66 127.686V120.918C298.66 120.758 298.708 120.63 298.804 120.534C298.916 120.422 299.052 120.366 299.212 120.366H300.316C300.476 120.366 300.604 120.422 300.7 120.534C300.812 120.63 300.868 120.758 300.868 120.918V127.566C300.868 129.998 301.924 131.214 304.036 131.214C305.06 131.214 305.868 130.894 306.46 130.254C307.068 129.598 307.372 128.702 307.372 127.566V120.918C307.372 120.758 307.42 120.63 307.516 120.534C307.628 120.422 307.764 120.366 307.924 120.366H309.028C309.188 120.366 309.316 120.422 309.412 120.534C309.524 120.63 309.58 120.758 309.58 120.918V132.294C309.58 132.454 309.524 132.59 309.412 132.702C309.316 132.798 309.188 132.846 309.028 132.846H307.996C307.836 132.846 307.7 132.798 307.588 132.702C307.492 132.59 307.444 132.454 307.444 132.294V131.214C306.98 131.838 306.436 132.31 305.812 132.63C305.188 132.934 304.396 133.086 303.436 133.086ZM319.629 132.846C319.469 132.846 319.333 132.798 319.221 132.702C319.125 132.59 319.077 132.454 319.077 132.294V120.918C319.077 120.758 319.125 120.63 319.221 120.534C319.333 120.422 319.469 120.366 319.629 120.366H320.637C320.797 120.366 320.925 120.422 321.021 120.534C321.117 120.63 321.165 120.758 321.165 120.918V121.734C322.029 120.662 323.197 120.126 324.669 120.126C326.429 120.126 327.677 120.862 328.413 122.334C328.797 121.662 329.341 121.126 330.045 120.726C330.765 120.326 331.565 120.126 332.445 120.126C333.757 120.126 334.829 120.574 335.661 121.47C336.493 122.366 336.909 123.662 336.909 125.358V132.294C336.909 132.454 336.853 132.59 336.741 132.702C336.645 132.798 336.517 132.846 336.357 132.846H335.325C335.165 132.846 335.029 132.798 334.917 132.702C334.821 132.59 334.773 132.454 334.773 132.294V125.574C334.773 124.294 334.509 123.382 333.981 122.838C333.453 122.278 332.757 121.998 331.893 121.998C331.125 121.998 330.461 122.286 329.901 122.862C329.357 123.422 329.085 124.326 329.085 125.574V132.294C329.085 132.454 329.029 132.59 328.917 132.702C328.821 132.798 328.693 132.846 328.533 132.846H327.477C327.317 132.846 327.181 132.798 327.069 132.702C326.973 132.59 326.925 132.454 326.925 132.294V125.574C326.925 124.31 326.645 123.398 326.085 122.838C325.541 122.278 324.861 121.998 324.045 121.998C323.277 121.998 322.613 122.278 322.053 122.838C321.509 123.398 321.237 124.302 321.237 125.55V132.294C321.237 132.454 321.181 132.59 321.069 132.702C320.973 132.798 320.845 132.846 320.685 132.846H319.629ZM340.742 118.014C340.582 118.014 340.446 117.966 340.334 117.87C340.238 117.758 340.19 117.622 340.19 117.462V116.214C340.19 116.054 340.238 115.918 340.334 115.806C340.446 115.694 340.582 115.638 340.742 115.638H342.158C342.318 115.638 342.454 115.694 342.566 115.806C342.678 115.918 342.734 116.054 342.734 116.214V117.462C342.734 117.622 342.678 117.758 342.566 117.87C342.454 117.966 342.318 118.014 342.158 118.014H340.742ZM340.934 132.846C340.774 132.846 340.638 132.798 340.526 132.702C340.43 132.59 340.382 132.454 340.382 132.294V120.918C340.382 120.758 340.43 120.63 340.526 120.534C340.638 120.422 340.774 120.366 340.934 120.366H341.99C342.15 120.366 342.278 120.422 342.374 120.534C342.486 120.63 342.542 120.758 342.542 120.918V132.294C342.542 132.454 342.486 132.59 342.374 132.702C342.278 132.798 342.15 132.846 341.99 132.846H340.934ZM351.212 138.126C349.884 138.126 348.82 137.902 348.02 137.454C347.22 137.006 346.652 136.494 346.316 135.918C345.996 135.342 345.836 134.846 345.836 134.43C345.836 134.286 345.892 134.158 346.004 134.046C346.116 133.95 346.244 133.902 346.388 133.902H347.444C347.588 133.902 347.708 133.934 347.804 133.998C347.9 134.078 347.98 134.214 348.044 134.406C348.492 135.686 349.508 136.326 351.092 136.326C352.292 136.326 353.18 136.07 353.756 135.558C354.332 135.046 354.62 134.142 354.62 132.846V131.19C353.692 132.374 352.396 132.966 350.732 132.966C349.036 132.966 347.764 132.422 346.916 131.334C346.084 130.246 345.644 128.87 345.596 127.206L345.572 126.534L345.596 125.886C345.644 124.238 346.084 122.87 346.916 121.782C347.764 120.678 349.036 120.126 350.732 120.126C352.412 120.126 353.724 120.742 354.668 121.974V120.942C354.668 120.782 354.716 120.646 354.812 120.534C354.924 120.422 355.06 120.366 355.22 120.366H356.252C356.412 120.366 356.54 120.422 356.636 120.534C356.748 120.646 356.804 120.782 356.804 120.942V132.582C356.804 136.278 354.94 138.126 351.212 138.126ZM351.164 131.094C352.284 131.094 353.124 130.734 353.684 130.014C354.26 129.278 354.572 128.398 354.62 127.374C354.636 127.23 354.644 126.95 354.644 126.534C354.644 126.134 354.636 125.862 354.62 125.718C354.572 124.694 354.26 123.822 353.684 123.102C353.124 122.366 352.284 121.998 351.164 121.998C350.012 121.998 349.172 122.366 348.644 123.102C348.132 123.822 347.852 124.758 347.804 125.91L347.78 126.534L347.804 127.182C347.852 128.334 348.132 129.278 348.644 130.014C349.172 130.734 350.012 131.094 351.164 131.094ZM360.997 132.846C360.837 132.846 360.701 132.798 360.589 132.702C360.493 132.59 360.445 132.454 360.445 132.294V116.358C360.445 116.182 360.493 116.046 360.589 115.95C360.701 115.854 360.837 115.806 360.997 115.806H362.101C362.277 115.806 362.413 115.854 362.509 115.95C362.605 116.046 362.653 116.182 362.653 116.358V121.95C363.117 121.358 363.661 120.91 364.285 120.606C364.925 120.286 365.709 120.126 366.637 120.126C368.173 120.126 369.365 120.622 370.213 121.614C371.077 122.59 371.509 123.886 371.509 125.502V132.294C371.509 132.454 371.453 132.59 371.341 132.702C371.245 132.798 371.117 132.846 370.957 132.846H369.829C369.669 132.846 369.533 132.798 369.421 132.702C369.325 132.59 369.277 132.454 369.277 132.294V125.646C369.277 124.494 368.997 123.598 368.437 122.958C367.877 122.318 367.069 121.998 366.013 121.998C364.989 121.998 364.173 122.326 363.565 122.982C362.957 123.622 362.653 124.51 362.653 125.646V132.294C362.653 132.454 362.597 132.59 362.485 132.702C362.389 132.798 362.261 132.846 362.101 132.846H360.997ZM379.635 132.846C377.155 132.846 375.915 131.446 375.915 128.646V122.214H374.019C373.859 122.214 373.731 122.166 373.635 122.07C373.539 121.974 373.491 121.846 373.491 121.686V120.918C373.491 120.758 373.539 120.63 373.635 120.534C373.731 120.422 373.859 120.366 374.019 120.366H375.915V116.358C375.915 116.198 375.963 116.07 376.059 115.974C376.155 115.862 376.283 115.806 376.443 115.806H377.499C377.659 115.806 377.787 115.862 377.883 115.974C377.995 116.07 378.051 116.198 378.051 116.358V120.366H381.027C381.187 120.366 381.315 120.422 381.411 120.534C381.523 120.63 381.579 120.758 381.579 120.918V121.686C381.579 121.846 381.523 121.974 381.411 122.07C381.315 122.166 381.187 122.214 381.027 122.214H378.051V128.478C378.051 129.294 378.179 129.91 378.435 130.326C378.707 130.742 379.163 130.95 379.803 130.95H381.267C381.427 130.95 381.555 131.006 381.651 131.118C381.747 131.214 381.795 131.342 381.795 131.502V132.294C381.795 132.454 381.747 132.59 381.651 132.702C381.555 132.798 381.427 132.846 381.267 132.846H379.635ZM390.598 132.846C390.438 132.846 390.302 132.798 390.19 132.702C390.094 132.59 390.046 132.454 390.046 132.294V120.918C390.046 120.758 390.094 120.63 390.19 120.534C390.302 120.422 390.438 120.366 390.598 120.366H391.63C391.806 120.366 391.942 120.414 392.038 120.51C392.134 120.606 392.182 120.742 392.182 120.918V121.974C392.662 121.382 393.214 120.926 393.838 120.606C394.478 120.286 395.27 120.126 396.214 120.126C397.75 120.126 398.942 120.622 399.79 121.614C400.638 122.59 401.062 123.886 401.062 125.502V132.294C401.062 132.454 401.006 132.59 400.894 132.702C400.798 132.798 400.67 132.846 400.51 132.846H399.406C399.246 132.846 399.11 132.798 398.998 132.702C398.902 132.59 398.854 132.454 398.854 132.294V125.646C398.854 124.494 398.574 123.598 398.014 122.958C397.454 122.318 396.654 121.998 395.614 121.998C394.59 121.998 393.774 122.326 393.166 122.982C392.558 123.622 392.254 124.51 392.254 125.646V132.294C392.254 132.454 392.198 132.59 392.086 132.702C391.99 132.798 391.862 132.846 391.702 132.846H390.598ZM409.594 133.086C407.834 133.086 406.474 132.59 405.514 131.598C404.57 130.606 404.066 129.286 404.002 127.638L403.978 126.606L404.002 125.574C404.066 123.926 404.578 122.606 405.538 121.614C406.514 120.622 407.866 120.126 409.594 120.126C411.322 120.126 412.666 120.622 413.626 121.614C414.602 122.606 415.122 123.926 415.186 125.574C415.218 125.926 415.234 126.27 415.234 126.606C415.234 126.942 415.218 127.286 415.186 127.638C415.122 129.286 414.61 130.606 413.65 131.598C412.706 132.59 411.354 133.086 409.594 133.086ZM409.594 131.286C410.618 131.286 411.426 130.966 412.018 130.326C412.626 129.67 412.954 128.734 413.002 127.518C413.018 127.358 413.026 127.054 413.026 126.606C413.026 126.158 413.018 125.854 413.002 125.694C412.954 124.478 412.626 123.55 412.018 122.91C411.426 122.254 410.618 121.926 409.594 121.926C408.57 121.926 407.754 122.254 407.146 122.91C406.554 123.55 406.234 124.478 406.186 125.694L406.162 126.606L406.186 127.518C406.234 128.734 406.554 129.67 407.146 130.326C407.754 130.966 408.57 131.286 409.594 131.286ZM422.948 132.846C420.468 132.846 419.228 131.446 419.228 128.646V122.214H417.332C417.172 122.214 417.044 122.166 416.948 122.07C416.852 121.974 416.804 121.846 416.804 121.686V120.918C416.804 120.758 416.852 120.63 416.948 120.534C417.044 120.422 417.172 120.366 417.332 120.366H419.228V116.358C419.228 116.198 419.276 116.07 419.372 115.974C419.468 115.862 419.596 115.806 419.756 115.806H420.812C420.972 115.806 421.1 115.862 421.196 115.974C421.308 116.07 421.364 116.198 421.364 116.358V120.366H424.34C424.5 120.366 424.628 120.422 424.724 120.534C424.836 120.63 424.892 120.758 424.892 120.918V121.686C424.892 121.846 424.836 121.974 424.724 122.07C424.628 122.166 424.5 122.214 424.34 122.214H421.364V128.478C421.364 129.294 421.492 129.91 421.748 130.326C422.02 130.742 422.476 130.95 423.116 130.95H424.58C424.74 130.95 424.868 131.006 424.964 131.118C425.06 131.214 425.108 131.342 425.108 131.502V132.294C425.108 132.454 425.06 132.59 424.964 132.702C424.868 132.798 424.74 132.846 424.58 132.846H422.948ZM433.935 132.846C433.775 132.846 433.639 132.798 433.527 132.702C433.431 132.59 433.383 132.454 433.383 132.294V116.358C433.383 116.182 433.431 116.046 433.527 115.95C433.639 115.854 433.775 115.806 433.935 115.806H435.039C435.215 115.806 435.351 115.854 435.447 115.95C435.543 116.046 435.591 116.182 435.591 116.358V121.95C436.055 121.358 436.599 120.91 437.223 120.606C437.863 120.286 438.647 120.126 439.575 120.126C441.111 120.126 442.303 120.622 443.151 121.614C444.015 122.59 444.447 123.886 444.447 125.502V132.294C444.447 132.454 444.391 132.59 444.279 132.702C444.183 132.798 444.055 132.846 443.895 132.846H442.767C442.607 132.846 442.471 132.798 442.359 132.702C442.263 132.59 442.215 132.454 442.215 132.294V125.646C442.215 124.494 441.935 123.598 441.375 122.958C440.815 122.318 440.007 121.998 438.951 121.998C437.927 121.998 437.111 122.326 436.503 122.982C435.895 123.622 435.591 124.51 435.591 125.646V132.294C435.591 132.454 435.535 132.59 435.423 132.702C435.327 132.798 435.199 132.846 435.039 132.846H433.935ZM451.393 133.086C450.609 133.086 449.881 132.926 449.209 132.606C448.553 132.286 448.025 131.854 447.625 131.31C447.241 130.75 447.049 130.134 447.049 129.462C447.049 128.406 447.481 127.542 448.345 126.87C449.209 126.198 450.385 125.75 451.873 125.526L455.473 125.022V124.326C455.473 122.678 454.521 121.854 452.617 121.854C451.881 121.854 451.289 122.006 450.841 122.31C450.393 122.598 450.065 122.942 449.857 123.342C449.793 123.502 449.721 123.614 449.641 123.678C449.577 123.726 449.481 123.75 449.353 123.75H448.417C448.273 123.75 448.145 123.702 448.033 123.606C447.937 123.494 447.889 123.366 447.889 123.222C447.889 122.854 448.057 122.43 448.393 121.95C448.745 121.454 449.281 121.03 450.001 120.678C450.721 120.31 451.601 120.126 452.641 120.126C454.433 120.126 455.713 120.542 456.481 121.374C457.265 122.206 457.657 123.246 457.657 124.494V132.294C457.657 132.454 457.601 132.59 457.489 132.702C457.393 132.798 457.265 132.846 457.105 132.846H456.049C455.889 132.846 455.761 132.798 455.665 132.702C455.569 132.59 455.521 132.454 455.521 132.294V131.238C455.169 131.766 454.657 132.206 453.985 132.558C453.313 132.91 452.449 133.086 451.393 133.086ZM451.873 131.334C452.929 131.334 453.793 130.99 454.465 130.302C455.137 129.614 455.473 128.614 455.473 127.302V126.63L452.665 127.038C451.513 127.198 450.641 127.47 450.049 127.854C449.457 128.238 449.161 128.718 449.161 129.294C449.161 129.95 449.425 130.454 449.953 130.806C450.497 131.158 451.137 131.334 451.873 131.334ZM465.242 132.846C464.826 132.846 464.53 132.646 464.354 132.246L459.89 121.11C459.874 121.062 459.866 120.982 459.866 120.87C459.866 120.726 459.914 120.606 460.01 120.51C460.106 120.414 460.218 120.366 460.346 120.366H461.45C461.706 120.366 461.898 120.494 462.026 120.75L465.722 130.326L469.418 120.75C469.45 120.654 469.514 120.566 469.61 120.486C469.722 120.406 469.85 120.366 469.994 120.366H471.098C471.226 120.366 471.338 120.414 471.434 120.51C471.53 120.606 471.578 120.726 471.578 120.87L471.53 121.11L467.09 132.246C466.914 132.646 466.618 132.846 466.202 132.846H465.242ZM478.639 133.086C477.007 133.086 475.703 132.582 474.727 131.574C473.751 130.55 473.215 129.158 473.119 127.398L473.095 126.582L473.119 125.79C473.215 124.062 473.751 122.686 474.727 121.662C475.703 120.638 477.007 120.126 478.639 120.126C480.399 120.126 481.759 120.686 482.719 121.806C483.695 122.926 484.183 124.446 484.183 126.366V126.798C484.183 126.958 484.127 127.094 484.015 127.206C483.919 127.302 483.791 127.35 483.631 127.35H475.303V127.566C475.351 128.606 475.671 129.494 476.263 130.23C476.855 130.966 477.639 131.334 478.615 131.334C479.367 131.334 479.975 131.19 480.439 130.902C480.919 130.598 481.279 130.286 481.519 129.966C481.663 129.774 481.775 129.662 481.855 129.63C481.935 129.582 482.071 129.558 482.263 129.558H483.319C483.463 129.558 483.583 129.598 483.679 129.678C483.791 129.758 483.847 129.862 483.847 129.99C483.847 130.342 483.631 130.766 483.199 131.262C482.767 131.758 482.151 132.19 481.351 132.558C480.567 132.91 479.663 133.086 478.639 133.086ZM481.999 125.718V125.646C481.999 124.526 481.695 123.614 481.087 122.91C480.479 122.206 479.663 121.854 478.639 121.854C477.599 121.854 476.783 122.206 476.191 122.91C475.599 123.614 475.303 124.526 475.303 125.646V125.718H481.999ZM69.162 165.086C67.53 165.086 66.226 164.582 65.25 163.574C64.274 162.55 63.738 161.158 63.642 159.398L63.618 158.582L63.642 157.79C63.738 156.062 64.274 154.686 65.25 153.662C66.226 152.638 67.53 152.126 69.162 152.126C70.922 152.126 72.282 152.686 73.242 153.806C74.218 154.926 74.706 156.446 74.706 158.366V158.798C74.706 158.958 74.65 159.094 74.538 159.206C74.442 159.302 74.314 159.35 74.154 159.35H65.826V159.566C65.874 160.606 66.194 161.494 66.786 162.23C67.378 162.966 68.162 163.334 69.138 163.334C69.89 163.334 70.498 163.19 70.962 162.902C71.442 162.598 71.802 162.286 72.042 161.966C72.186 161.774 72.298 161.662 72.378 161.63C72.458 161.582 72.594 161.558 72.786 161.558H73.842C73.986 161.558 74.106 161.598 74.202 161.678C74.314 161.758 74.37 161.862 74.37 161.99C74.37 162.342 74.154 162.766 73.722 163.262C73.29 163.758 72.674 164.19 71.874 164.558C71.09 164.91 70.186 165.086 69.162 165.086ZM72.522 157.718V157.646C72.522 156.526 72.218 155.614 71.61 154.91C71.002 154.206 70.186 153.854 69.162 153.854C68.122 153.854 67.306 154.206 66.714 154.91C66.122 155.614 65.826 156.526 65.826 157.646V157.718H72.522ZM81.5463 164.846C81.1303 164.846 80.8343 164.646 80.6583 164.246L76.1943 153.11C76.1783 153.062 76.1703 152.982 76.1703 152.87C76.1703 152.726 76.2183 152.606 76.3143 152.51C76.4103 152.414 76.5223 152.366 76.6503 152.366H77.7543C78.0103 152.366 78.2023 152.494 78.3303 152.75L82.0263 162.326L85.7223 152.75C85.7543 152.654 85.8183 152.566 85.9143 152.486C86.0263 152.406 86.1543 152.366 86.2983 152.366H87.4023C87.5303 152.366 87.6423 152.414 87.7383 152.51C87.8343 152.606 87.8823 152.726 87.8823 152.87L87.8343 153.11L83.3943 164.246C83.2183 164.646 82.9223 164.846 82.5063 164.846H81.5463ZM94.9432 165.086C93.3112 165.086 92.0072 164.582 91.0312 163.574C90.0552 162.55 89.5192 161.158 89.4232 159.398L89.3992 158.582L89.4232 157.79C89.5192 156.062 90.0552 154.686 91.0312 153.662C92.0072 152.638 93.3112 152.126 94.9432 152.126C96.7032 152.126 98.0632 152.686 99.0232 153.806C99.9992 154.926 100.487 156.446 100.487 158.366V158.798C100.487 158.958 100.431 159.094 100.319 159.206C100.223 159.302 100.095 159.35 99.9352 159.35H91.6072V159.566C91.6552 160.606 91.9752 161.494 92.5672 162.23C93.1592 162.966 93.9432 163.334 94.9192 163.334C95.6712 163.334 96.2792 163.19 96.7432 162.902C97.2232 162.598 97.5832 162.286 97.8232 161.966C97.9672 161.774 98.0792 161.662 98.1592 161.63C98.2392 161.582 98.3752 161.558 98.5672 161.558H99.6232C99.7672 161.558 99.8872 161.598 99.9832 161.678C100.095 161.758 100.151 161.862 100.151 161.99C100.151 162.342 99.9352 162.766 99.5032 163.262C99.0712 163.758 98.4552 164.19 97.6552 164.558C96.8712 164.91 95.9672 165.086 94.9432 165.086ZM98.3032 157.718V157.646C98.3032 156.526 97.9992 155.614 97.3912 154.91C96.7832 154.206 95.9672 153.854 94.9432 153.854C93.9032 153.854 93.0872 154.206 92.4952 154.91C91.9032 155.614 91.6072 156.526 91.6072 157.646V157.718H98.3032ZM103.957 164.846C103.797 164.846 103.661 164.798 103.549 164.702C103.453 164.59 103.405 164.454 103.405 164.294V152.942C103.405 152.782 103.453 152.646 103.549 152.534C103.661 152.422 103.797 152.366 103.957 152.366H104.965C105.141 152.366 105.277 152.422 105.373 152.534C105.485 152.63 105.541 152.766 105.541 152.942V153.998C106.197 152.91 107.309 152.366 108.877 152.366H109.813C109.989 152.366 110.125 152.414 110.221 152.51C110.317 152.606 110.365 152.742 110.365 152.918V153.806C110.365 153.966 110.317 154.102 110.221 154.214C110.125 154.31 109.989 154.358 109.813 154.358H108.445C107.565 154.358 106.869 154.614 106.357 155.126C105.861 155.638 105.613 156.334 105.613 157.214V164.294C105.613 164.454 105.557 164.59 105.445 164.702C105.333 164.798 105.197 164.846 105.037 164.846H103.957ZM122.057 164.846C119.577 164.846 118.337 163.446 118.337 160.646V154.214H116.441C116.281 154.214 116.153 154.166 116.057 154.07C115.961 153.974 115.913 153.846 115.913 153.686V152.918C115.913 152.758 115.961 152.63 116.057 152.534C116.153 152.422 116.281 152.366 116.441 152.366H118.337V148.358C118.337 148.198 118.385 148.07 118.481 147.974C118.577 147.862 118.705 147.806 118.865 147.806H119.921C120.081 147.806 120.209 147.862 120.305 147.974C120.417 148.07 120.473 148.198 120.473 148.358V152.366H123.449C123.609 152.366 123.737 152.422 123.833 152.534C123.945 152.63 124.001 152.758 124.001 152.918V153.686C124.001 153.846 123.945 153.974 123.833 154.07C123.737 154.166 123.609 154.214 123.449 154.214H120.473V160.478C120.473 161.294 120.601 161.91 120.857 162.326C121.129 162.742 121.585 162.95 122.225 162.95H123.689C123.849 162.95 123.977 163.006 124.073 163.118C124.169 163.214 124.217 163.342 124.217 163.502V164.294C124.217 164.454 124.169 164.59 124.073 164.702C123.977 164.798 123.849 164.846 123.689 164.846H122.057ZM127.138 164.846C126.978 164.846 126.842 164.798 126.73 164.702C126.634 164.59 126.586 164.454 126.586 164.294V148.358C126.586 148.182 126.634 148.046 126.73 147.95C126.842 147.854 126.978 147.806 127.138 147.806H128.242C128.418 147.806 128.554 147.854 128.65 147.95C128.746 148.046 128.794 148.182 128.794 148.358V153.95C129.258 153.358 129.802 152.91 130.426 152.606C131.066 152.286 131.85 152.126 132.778 152.126C134.314 152.126 135.506 152.622 136.354 153.614C137.218 154.59 137.65 155.886 137.65 157.502V164.294C137.65 164.454 137.594 164.59 137.482 164.702C137.386 164.798 137.258 164.846 137.098 164.846H135.97C135.81 164.846 135.674 164.798 135.562 164.702C135.466 164.59 135.418 164.454 135.418 164.294V157.646C135.418 156.494 135.138 155.598 134.578 154.958C134.018 154.318 133.21 153.998 132.154 153.998C131.13 153.998 130.314 154.326 129.706 154.982C129.098 155.622 128.794 156.51 128.794 157.646V164.294C128.794 164.454 128.738 164.59 128.626 164.702C128.53 164.798 128.402 164.846 128.242 164.846H127.138ZM146.204 165.086C144.444 165.086 143.084 164.59 142.124 163.598C141.18 162.606 140.676 161.286 140.612 159.638L140.588 158.606L140.612 157.574C140.676 155.926 141.188 154.606 142.148 153.614C143.124 152.622 144.476 152.126 146.204 152.126C147.932 152.126 149.276 152.622 150.236 153.614C151.212 154.606 151.732 155.926 151.796 157.574C151.828 157.926 151.844 158.27 151.844 158.606C151.844 158.942 151.828 159.286 151.796 159.638C151.732 161.286 151.22 162.606 150.26 163.598C149.316 164.59 147.964 165.086 146.204 165.086ZM146.204 163.286C147.228 163.286 148.036 162.966 148.628 162.326C149.236 161.67 149.564 160.734 149.612 159.518C149.628 159.358 149.636 159.054 149.636 158.606C149.636 158.158 149.628 157.854 149.612 157.694C149.564 156.478 149.236 155.55 148.628 154.91C148.036 154.254 147.228 153.926 146.204 153.926C145.18 153.926 144.364 154.254 143.756 154.91C143.164 155.55 142.844 156.478 142.796 157.694L142.772 158.606L142.796 159.518C142.844 160.734 143.164 161.67 143.756 162.326C144.364 162.966 145.18 163.286 146.204 163.286ZM159.53 165.086C158.01 165.086 156.834 164.598 156.002 163.622C155.17 162.63 154.754 161.318 154.754 159.686V152.918C154.754 152.758 154.802 152.63 154.898 152.534C155.01 152.422 155.146 152.366 155.306 152.366H156.41C156.57 152.366 156.698 152.422 156.794 152.534C156.906 152.63 156.962 152.758 156.962 152.918V159.566C156.962 161.998 158.018 163.214 160.13 163.214C161.154 163.214 161.962 162.894 162.554 162.254C163.162 161.598 163.466 160.702 163.466 159.566V152.918C163.466 152.758 163.514 152.63 163.61 152.534C163.722 152.422 163.858 152.366 164.018 152.366H165.122C165.282 152.366 165.41 152.422 165.506 152.534C165.618 152.63 165.674 152.758 165.674 152.918V164.294C165.674 164.454 165.618 164.59 165.506 164.702C165.41 164.798 165.282 164.846 165.122 164.846H164.09C163.93 164.846 163.794 164.798 163.682 164.702C163.586 164.59 163.538 164.454 163.538 164.294V163.214C163.074 163.838 162.53 164.31 161.906 164.63C161.282 164.934 160.49 165.086 159.53 165.086ZM174.329 170.126C173.001 170.126 171.937 169.902 171.137 169.454C170.337 169.006 169.769 168.494 169.433 167.918C169.113 167.342 168.953 166.846 168.953 166.43C168.953 166.286 169.009 166.158 169.121 166.046C169.233 165.95 169.361 165.902 169.505 165.902H170.561C170.705 165.902 170.825 165.934 170.921 165.998C171.017 166.078 171.097 166.214 171.161 166.406C171.609 167.686 172.625 168.326 174.209 168.326C175.409 168.326 176.297 168.07 176.873 167.558C177.449 167.046 177.737 166.142 177.737 164.846V163.19C176.809 164.374 175.513 164.966 173.849 164.966C172.153 164.966 170.881 164.422 170.033 163.334C169.201 162.246 168.761 160.87 168.713 159.206L168.689 158.534L168.713 157.886C168.761 156.238 169.201 154.87 170.033 153.782C170.881 152.678 172.153 152.126 173.849 152.126C175.529 152.126 176.841 152.742 177.785 153.974V152.942C177.785 152.782 177.833 152.646 177.929 152.534C178.041 152.422 178.177 152.366 178.337 152.366H179.369C179.529 152.366 179.657 152.422 179.753 152.534C179.865 152.646 179.921 152.782 179.921 152.942V164.582C179.921 168.278 178.057 170.126 174.329 170.126ZM174.281 163.094C175.401 163.094 176.241 162.734 176.801 162.014C177.377 161.278 177.689 160.398 177.737 159.374C177.753 159.23 177.761 158.95 177.761 158.534C177.761 158.134 177.753 157.862 177.737 157.718C177.689 156.694 177.377 155.822 176.801 155.102C176.241 154.366 175.401 153.998 174.281 153.998C173.129 153.998 172.289 154.366 171.761 155.102C171.249 155.822 170.969 156.758 170.921 157.91L170.897 158.534L170.921 159.182C170.969 160.334 171.249 161.278 171.761 162.014C172.289 162.734 173.129 163.094 174.281 163.094ZM184.114 164.846C183.954 164.846 183.818 164.798 183.706 164.702C183.61 164.59 183.562 164.454 183.562 164.294V148.358C183.562 148.182 183.61 148.046 183.706 147.95C183.818 147.854 183.954 147.806 184.114 147.806H185.218C185.394 147.806 185.53 147.854 185.626 147.95C185.722 148.046 185.77 148.182 185.77 148.358V153.95C186.234 153.358 186.778 152.91 187.402 152.606C188.042 152.286 188.826 152.126 189.754 152.126C191.29 152.126 192.482 152.622 193.33 153.614C194.194 154.59 194.626 155.886 194.626 157.502V164.294C194.626 164.454 194.57 164.59 194.458 164.702C194.362 164.798 194.234 164.846 194.074 164.846H192.946C192.786 164.846 192.65 164.798 192.538 164.702C192.442 164.59 192.394 164.454 192.394 164.294V157.646C192.394 156.494 192.114 155.598 191.554 154.958C190.994 154.318 190.186 153.998 189.13 153.998C188.106 153.998 187.29 154.326 186.682 154.982C186.074 155.622 185.77 156.51 185.77 157.646V164.294C185.77 164.454 185.714 164.59 185.602 164.702C185.506 164.798 185.378 164.846 185.218 164.846H184.114ZM202.752 164.846C200.272 164.846 199.032 163.446 199.032 160.646V154.214H197.136C196.976 154.214 196.848 154.166 196.752 154.07C196.656 153.974 196.608 153.846 196.608 153.686V152.918C196.608 152.758 196.656 152.63 196.752 152.534C196.848 152.422 196.976 152.366 197.136 152.366H199.032V148.358C199.032 148.198 199.08 148.07 199.176 147.974C199.272 147.862 199.4 147.806 199.56 147.806H200.616C200.776 147.806 200.904 147.862 201 147.974C201.112 148.07 201.168 148.198 201.168 148.358V152.366H204.144C204.304 152.366 204.432 152.422 204.528 152.534C204.64 152.63 204.696 152.758 204.696 152.918V153.686C204.696 153.846 204.64 153.974 204.528 154.07C204.432 154.166 204.304 154.214 204.144 154.214H201.168V160.478C201.168 161.294 201.296 161.91 201.552 162.326C201.824 162.742 202.28 162.95 202.92 162.95H204.384C204.544 162.95 204.672 163.006 204.768 163.118C204.864 163.214 204.912 163.342 204.912 163.502V164.294C204.912 164.454 204.864 164.59 204.768 164.702C204.672 164.798 204.544 164.846 204.384 164.846H202.752ZM218.227 165.086C216.467 165.086 215.107 164.59 214.147 163.598C213.203 162.606 212.699 161.286 212.635 159.638L212.611 158.606L212.635 157.574C212.699 155.926 213.211 154.606 214.171 153.614C215.147 152.622 216.499 152.126 218.227 152.126C219.955 152.126 221.299 152.622 222.259 153.614C223.235 154.606 223.755 155.926 223.819 157.574C223.851 157.926 223.867 158.27 223.867 158.606C223.867 158.942 223.851 159.286 223.819 159.638C223.755 161.286 223.243 162.606 222.283 163.598C221.339 164.59 219.987 165.086 218.227 165.086ZM218.227 163.286C219.251 163.286 220.059 162.966 220.651 162.326C221.259 161.67 221.587 160.734 221.635 159.518C221.651 159.358 221.659 159.054 221.659 158.606C221.659 158.158 221.651 157.854 221.635 157.694C221.587 156.478 221.259 155.55 220.651 154.91C220.059 154.254 219.251 153.926 218.227 153.926C217.203 153.926 216.387 154.254 215.779 154.91C215.187 155.55 214.867 156.478 214.819 157.694L214.795 158.606L214.819 159.518C214.867 160.734 215.187 161.67 215.779 162.326C216.387 162.966 217.203 163.286 218.227 163.286ZM228.557 164.846C228.397 164.846 228.261 164.798 228.149 164.702C228.053 164.59 228.005 164.454 228.005 164.294V154.214H225.941C225.781 154.214 225.645 154.166 225.533 154.07C225.437 153.974 225.389 153.846 225.389 153.686V152.918C225.389 152.758 225.437 152.63 225.533 152.534C225.645 152.422 225.781 152.366 225.941 152.366H228.005V151.166C228.005 149.87 228.317 148.87 228.941 148.166C229.581 147.446 230.621 147.086 232.061 147.086H233.477C233.637 147.086 233.765 147.142 233.861 147.254C233.973 147.35 234.029 147.478 234.029 147.638V148.406C234.029 148.566 233.973 148.694 233.861 148.79C233.765 148.886 233.637 148.934 233.477 148.934H232.109C231.373 148.934 230.861 149.126 230.573 149.51C230.285 149.894 230.141 150.486 230.141 151.286V152.366H233.237C233.397 152.366 233.525 152.422 233.621 152.534C233.733 152.63 233.789 152.758 233.789 152.918V153.686C233.789 153.846 233.733 153.974 233.621 154.07C233.525 154.166 233.397 154.214 233.237 154.214H230.141V164.294C230.141 164.454 230.085 164.59 229.973 164.702C229.877 164.798 229.749 164.846 229.589 164.846H228.557ZM235.368 164.846C235.208 164.846 235.072 164.798 234.96 164.702C234.864 164.59 234.816 164.454 234.816 164.294V162.638C234.816 162.478 234.864 162.342 234.96 162.23C235.072 162.118 235.208 162.062 235.368 162.062H237.024C237.184 162.062 237.312 162.118 237.408 162.23C237.52 162.342 237.576 162.478 237.576 162.638V164.294C237.576 164.454 237.52 164.59 237.408 164.702C237.312 164.798 237.184 164.846 237.024 164.846H235.368Z" fill="white"/>
<path d="M98.418 9.53584L236.827 1.8457L247.418 21.6203L244.496 49.0851L170.727 53.8457L98.418 49.0851V9.53584Z" fill="#4F978B"/>
<path d="M98.418 8.42465L166.178 0.845703H237.217L247.418 21.4171L243.411 43.0713L171.643 48.8457L98.7823 43.0713L98.418 8.42465Z" fill="#7FCDC0"/>
<path d="M140.01 33.0857C137.722 33.0857 135.922 32.5337 134.61 31.4297C133.314 30.3257 132.626 28.7097 132.546 26.5817C132.53 26.1497 132.522 25.4457 132.522 24.4697C132.522 23.4777 132.53 22.7577 132.546 22.3097C132.626 20.2297 133.322 18.6297 134.634 17.5097C135.962 16.3737 137.754 15.8057 140.01 15.8057C141.434 15.8057 142.706 16.0377 143.826 16.5017C144.962 16.9657 145.858 17.6377 146.514 18.5177C147.17 19.3977 147.514 20.4377 147.546 21.6377C147.546 21.7817 147.49 21.9017 147.378 21.9977C147.282 22.0937 147.162 22.1417 147.018 22.1417H143.61C143.386 22.1417 143.218 22.1017 143.106 22.0217C143.01 21.9257 142.922 21.7577 142.842 21.5177C142.618 20.7337 142.274 20.1897 141.81 19.8857C141.362 19.5657 140.762 19.4057 140.01 19.4057C138.202 19.4057 137.266 20.4137 137.202 22.4297C137.186 22.8617 137.178 23.5257 137.178 24.4217C137.178 25.3177 137.186 25.9977 137.202 26.4617C137.266 28.4777 138.202 29.4857 140.01 29.4857C140.746 29.4857 141.346 29.3257 141.81 29.0057C142.29 28.6857 142.634 28.1417 142.842 27.3737C142.906 27.1337 142.994 26.9737 143.106 26.8937C143.218 26.7977 143.386 26.7497 143.61 26.7497H147.018C147.162 26.7497 147.282 26.7977 147.378 26.8937C147.49 26.9897 147.546 27.1097 147.546 27.2537C147.514 28.4537 147.17 29.4937 146.514 30.3737C145.858 31.2537 144.962 31.9257 143.826 32.3897C142.706 32.8537 141.434 33.0857 140.01 33.0857ZM155.731 33.0857C153.715 33.0857 152.163 32.6217 151.075 31.6937C150.003 30.7497 149.419 29.4137 149.323 27.6857C149.307 27.4777 149.299 27.1177 149.299 26.6057C149.299 26.0937 149.307 25.7337 149.323 25.5257C149.419 23.8297 150.019 22.5097 151.123 21.5657C152.243 20.6057 153.779 20.1257 155.731 20.1257C157.683 20.1257 159.211 20.6057 160.315 21.5657C161.435 22.5097 162.043 23.8297 162.139 25.5257C162.171 25.9417 162.187 26.3017 162.187 26.6057C162.187 26.9097 162.171 27.2697 162.139 27.6857C162.043 29.4137 161.451 30.7497 160.363 31.6937C159.291 32.6217 157.747 33.0857 155.731 33.0857ZM155.731 30.0617C156.387 30.0617 156.875 29.8617 157.195 29.4617C157.515 29.0457 157.699 28.4137 157.747 27.5657C157.763 27.4057 157.771 27.0857 157.771 26.6057C157.771 26.1257 157.763 25.8057 157.747 25.6457C157.699 24.8137 157.515 24.1897 157.195 23.7737C156.875 23.3577 156.387 23.1497 155.731 23.1497C155.075 23.1497 154.587 23.3577 154.267 23.7737C153.947 24.1897 153.763 24.8137 153.715 25.6457L153.691 26.6057L153.715 27.5657C153.763 28.4137 153.947 29.0457 154.267 29.4617C154.587 29.8617 155.075 30.0617 155.731 30.0617ZM165.073 32.8457C164.913 32.8457 164.769 32.7897 164.641 32.6777C164.529 32.5497 164.473 32.4057 164.473 32.2457V20.9897C164.473 20.8137 164.529 20.6697 164.641 20.5577C164.753 20.4297 164.897 20.3657 165.073 20.3657H168.001C168.177 20.3657 168.321 20.4297 168.433 20.5577C168.561 20.6697 168.625 20.8137 168.625 20.9897V21.9017C169.073 21.4057 169.593 21.0297 170.185 20.7737C170.793 20.5017 171.465 20.3657 172.201 20.3657H173.281C173.457 20.3657 173.601 20.4217 173.713 20.5337C173.825 20.6457 173.881 20.7897 173.881 20.9657V23.5817C173.881 23.7417 173.825 23.8857 173.713 24.0137C173.601 24.1257 173.457 24.1817 173.281 24.1817H170.857C170.217 24.1817 169.721 24.3577 169.369 24.7097C169.033 25.0617 168.865 25.5577 168.865 26.1977V32.2457C168.865 32.4217 168.801 32.5657 168.673 32.6777C168.561 32.7897 168.417 32.8457 168.241 32.8457H165.073ZM180 32.8457C179.776 32.8457 179.6 32.7977 179.472 32.7017C179.36 32.5897 179.264 32.4377 179.184 32.2457L174.624 21.1097C174.608 21.0617 174.6 20.9977 174.6 20.9177C174.6 20.7577 174.648 20.6297 174.744 20.5337C174.856 20.4217 174.992 20.3657 175.152 20.3657H178.008C178.344 20.3657 178.584 20.5337 178.728 20.8697L181.344 28.0457L183.984 20.8697C184.032 20.7417 184.112 20.6297 184.224 20.5337C184.336 20.4217 184.488 20.3657 184.68 20.3657H187.56C187.704 20.3657 187.832 20.4217 187.944 20.5337C188.056 20.6297 188.112 20.7577 188.112 20.9177L188.064 21.1097L183.528 32.2457C183.448 32.4377 183.344 32.5897 183.216 32.7017C183.088 32.7977 182.912 32.8457 182.688 32.8457H180ZM194.487 33.0857C193.079 33.0857 191.943 32.6137 191.079 31.6697C190.215 30.7257 189.783 29.3897 189.783 27.6617V20.9657C189.783 20.7897 189.839 20.6457 189.951 20.5337C190.079 20.4217 190.223 20.3657 190.383 20.3657H193.575C193.751 20.3657 193.895 20.4217 194.007 20.5337C194.135 20.6457 194.199 20.7897 194.199 20.9657V27.5177C194.199 29.0057 194.863 29.7497 196.191 29.7497C196.831 29.7497 197.327 29.5577 197.679 29.1737C198.047 28.7737 198.231 28.2217 198.231 27.5177V20.9657C198.231 20.7897 198.287 20.6457 198.399 20.5337C198.527 20.4217 198.679 20.3657 198.855 20.3657H202.023C202.199 20.3657 202.343 20.4217 202.455 20.5337C202.567 20.6457 202.623 20.7897 202.623 20.9657V32.2457C202.623 32.4057 202.567 32.5497 202.455 32.6777C202.343 32.7897 202.199 32.8457 202.023 32.8457H199.095C198.919 32.8457 198.767 32.7897 198.639 32.6777C198.527 32.5657 198.471 32.4217 198.471 32.2457V31.3337C197.639 32.5017 196.311 33.0857 194.487 33.0857ZM210.58 33.0857C209.268 33.0857 208.172 32.9017 207.292 32.5337C206.412 32.1657 205.756 31.7257 205.324 31.2137C204.908 30.7017 204.7 30.2377 204.7 29.8217C204.7 29.6617 204.756 29.5337 204.868 29.4377C204.996 29.3257 205.132 29.2697 205.276 29.2697H208.18C208.276 29.2697 208.356 29.3017 208.42 29.3657C208.692 29.5417 208.844 29.6457 208.876 29.6777C209.18 29.9017 209.46 30.0777 209.716 30.2057C209.988 30.3177 210.308 30.3737 210.676 30.3737C211.108 30.3737 211.46 30.2937 211.732 30.1337C212.02 29.9577 212.164 29.7177 212.164 29.4137C212.164 29.1577 212.084 28.9497 211.924 28.7897C211.78 28.6297 211.492 28.4777 211.06 28.3337C210.644 28.1737 210.004 28.0137 209.14 27.8537C206.372 27.2937 204.988 26.0137 204.988 24.0137C204.988 23.3577 205.196 22.7337 205.612 22.1417C206.044 21.5337 206.668 21.0457 207.484 20.6777C208.316 20.3097 209.308 20.1257 210.46 20.1257C211.628 20.1257 212.636 20.3097 213.484 20.6777C214.348 21.0297 215.004 21.4617 215.452 21.9737C215.9 22.4697 216.124 22.9257 216.124 23.3417C216.124 23.4857 216.068 23.6137 215.956 23.7257C215.86 23.8377 215.74 23.8937 215.596 23.8937H212.956C212.812 23.8937 212.7 23.8617 212.62 23.7977C212.428 23.7017 212.236 23.5817 212.044 23.4377C211.756 23.2457 211.5 23.1017 211.276 23.0057C211.068 22.8937 210.796 22.8377 210.46 22.8377C210.06 22.8377 209.748 22.9257 209.524 23.1017C209.3 23.2777 209.188 23.5017 209.188 23.7737C209.188 24.0137 209.252 24.2137 209.38 24.3737C209.524 24.5177 209.804 24.6617 210.22 24.8057C210.652 24.9497 211.3 25.1017 212.164 25.2617C213.732 25.5337 214.868 26.0217 215.572 26.7257C216.292 27.4137 216.652 28.2217 216.652 29.1497C216.652 30.3497 216.116 31.3097 215.044 32.0297C213.988 32.7337 212.5 33.0857 210.58 33.0857Z" fill="#1E1C11"/>
<defs>
<filter id="filter0_d" x="0.417969" y="43.3457" width="582" height="262.5" filterUnits="userSpaceOnUse" color-interpolation-filters="sRGB">
<feFlood flood-opacity="0" result="BackgroundImageFix"/>
<feColorMatrix in="SourceAlpha" type="matrix" values="0 0 0 0 0 0 0 0 0 0 0 0 0 0 0 0 0 0 127 0"/>
<feOffset dy="5"/>
<feGaussianBlur stdDeviation="12"/>
<feColorMatrix type="matrix" values="0 0 0 0 1 0 0 0 0 0.670588 0 0 0 0 0.219608 0 0 0 0.15 0"/>
<feBlend mode="normal" in2="BackgroundImageFix" result="effect1_dropShadow"/>
<feBlend mode="normal" in="SourceGraphic" in2="effect1_dropShadow" result="shape"/>
</filter>
</defs>
</svg>
