<svg width="193" height="73" viewBox="0 0 193 73" fill="none" xmlns="http://www.w3.org/2000/svg">
<path d="M3.88367 24.0967C3.88367 22.9921 4.7791 22.0967 5.88367 22.0967H187.96C189.064 22.0967 189.96 22.9921 189.96 24.0967V69.5033C189.96 70.6079 189.064 71.5033 187.96 71.5033H5.88366C4.77909 71.5033 3.88367 70.6079 3.88367 69.5033V24.0967Z" fill="#F4B137"/>
<path d="M3.88367 5.8457C3.88367 4.74113 4.7791 3.8457 5.88367 3.8457H187.884C188.988 3.8457 189.884 4.74113 189.884 5.8457V60.8457C189.884 61.9503 188.988 62.8457 187.884 62.8457H5.88367C4.7791 62.8457 3.88367 61.9503 3.88367 60.8457V5.8457Z" fill="#FFCF2F"/>
<path d="M5.88367 2.3457C3.95067 2.3457 2.38367 3.91271 2.38367 5.84571V67.5033C2.38367 69.4363 3.95066 71.0033 5.88366 71.0033H187.96C189.893 71.0033 191.46 69.4363 191.46 67.5033V5.8457C191.46 3.91271 189.893 2.3457 187.96 2.3457H5.88367Z" stroke="#1E1C11" stroke-width="3"/>
</svg>
