<svg width="193" height="73" viewBox="0 0 193 73" fill="none" xmlns="http://www.w3.org/2000/svg">
<path d="M3.34546 24.0957C3.34546 22.9911 4.24089 22.0957 5.34546 22.0957H187.422C188.526 22.0957 189.422 22.9911 189.422 24.0957V69.5024C189.422 70.6069 188.526 71.5024 187.422 71.5024H5.34546C4.24089 71.5024 3.34546 70.6069 3.34546 69.5024V24.0957Z" fill="#F4B137"/>
<path d="M3.34546 5.8457C3.34546 4.74113 4.24089 3.8457 5.34546 3.8457H187.345C188.45 3.8457 189.345 4.74113 189.345 5.8457V60.8457C189.345 61.9503 188.45 62.8457 187.345 62.8457H5.34546C4.24089 62.8457 3.34546 61.9503 3.34546 60.8457V5.8457Z" fill="#FFCF2F"/>
<path d="M5.34546 2.3457C3.41246 2.3457 1.84546 3.91271 1.84546 5.84571V67.5033C1.84546 69.4363 3.41246 71.0033 5.34546 71.0033H187.422C189.355 71.0033 190.922 69.4363 190.922 67.5033V5.8457C190.922 3.91271 189.355 2.3457 187.422 2.3457H5.34546Z" stroke="#1E1C11" stroke-width="3"/>
<path d="M16.4839 43.8457C16.3239 43.8457 16.1879 43.7897 16.0759 43.6777C15.9639 43.5657 15.9079 43.4297 15.9079 43.2697V27.6457C15.9079 27.4697 15.9559 27.3257 16.0519 27.2137C16.1639 27.1017 16.3079 27.0457 16.4839 27.0457H22.9159C24.8519 27.0457 26.3719 27.5017 27.4759 28.4137C28.5799 29.3257 29.1319 30.6537 29.1319 32.3977C29.1319 34.1257 28.5799 35.4377 27.4759 36.3337C26.3719 37.2137 24.8519 37.6537 22.9159 37.6537H19.3879V43.2697C19.3879 43.4457 19.3319 43.5897 19.2199 43.7017C19.1079 43.7977 18.9639 43.8457 18.7879 43.8457H16.4839ZM22.7959 34.9657C23.7239 34.9657 24.4279 34.7497 24.9079 34.3177C25.4039 33.8697 25.6519 33.2217 25.6519 32.3737C25.6519 31.5417 25.4119 30.8937 24.9319 30.4297C24.4679 29.9657 23.7559 29.7337 22.7959 29.7337H19.3399V34.9657H22.7959ZM32.0637 43.8457C31.9037 43.8457 31.7677 43.7897 31.6557 43.6777C31.5437 43.5657 31.4877 43.4297 31.4877 43.2697V27.3817C31.4877 27.2057 31.5437 27.0697 31.6557 26.9737C31.7677 26.8617 31.9037 26.8057 32.0637 26.8057H34.0797C34.2557 26.8057 34.3917 26.8617 34.4877 26.9737C34.5997 27.0697 34.6557 27.2057 34.6557 27.3817V43.2697C34.6557 43.4297 34.5997 43.5657 34.4877 43.6777C34.3917 43.7897 34.2557 43.8457 34.0797 43.8457H32.0637ZM41.4627 44.0857C40.6467 44.0857 39.8947 43.9257 39.2067 43.6057C38.5347 43.2697 37.9987 42.8217 37.5987 42.2617C37.2147 41.7017 37.0227 41.0857 37.0227 40.4137C37.0227 39.3257 37.4627 38.4457 38.3427 37.7737C39.2227 37.1017 40.4307 36.6457 41.9667 36.4057L45.2547 35.9257V35.4217C45.2547 34.7337 45.0787 34.2137 44.7267 33.8617C44.3747 33.5097 43.8147 33.3337 43.0467 33.3337C42.5187 33.3337 42.0947 33.4297 41.7747 33.6217C41.4547 33.8137 41.1907 34.0137 40.9827 34.2217C40.7907 34.4137 40.6627 34.5417 40.5987 34.6057C40.5347 34.7977 40.4147 34.8937 40.2387 34.8937H38.3667C38.2227 34.8937 38.0947 34.8457 37.9827 34.7497C37.8867 34.6537 37.8387 34.5257 37.8387 34.3657C37.8547 33.9657 38.0467 33.5177 38.4147 33.0217C38.7987 32.5097 39.3827 32.0697 40.1667 31.7017C40.9507 31.3177 41.9187 31.1257 43.0707 31.1257C44.9587 31.1257 46.3347 31.5497 47.1987 32.3977C48.0627 33.2457 48.4947 34.3577 48.4947 35.7337V43.2697C48.4947 43.4297 48.4387 43.5657 48.3267 43.6777C48.2307 43.7897 48.0947 43.8457 47.9187 43.8457H45.9267C45.7667 43.8457 45.6307 43.7897 45.5187 43.6777C45.4067 43.5657 45.3507 43.4297 45.3507 43.2697V42.3337C44.9987 42.8457 44.5027 43.2697 43.8627 43.6057C43.2227 43.9257 42.4227 44.0857 41.4627 44.0857ZM42.2787 41.7817C43.1587 41.7817 43.8787 41.4937 44.4387 40.9177C44.9987 40.3417 45.2787 39.5097 45.2787 38.4217V37.9417L42.8787 38.3257C41.0387 38.6137 40.1187 39.2297 40.1187 40.1737C40.1187 40.6857 40.3267 41.0857 40.7427 41.3737C41.1747 41.6457 41.6867 41.7817 42.2787 41.7817ZM53.5009 48.4057C53.3729 48.4057 53.2529 48.3577 53.1409 48.2617C53.0449 48.1657 52.9969 48.0537 52.9969 47.9257C52.9969 47.8137 53.0289 47.6857 53.0929 47.5417L54.9889 43.1017L50.3809 32.2297C50.3169 32.0857 50.2849 31.9737 50.2849 31.8937C50.3009 31.7497 50.3569 31.6297 50.4529 31.5337C50.5489 31.4217 50.6689 31.3657 50.8129 31.3657H52.8049C53.0929 31.3657 53.3009 31.5177 53.4289 31.8217L56.6209 39.6457L59.8609 31.8217C60.0209 31.5177 60.2449 31.3657 60.5329 31.3657H62.4769C62.6209 31.3657 62.7409 31.4137 62.8369 31.5097C62.9329 31.6057 62.9809 31.7177 62.9809 31.8457C62.9809 31.9577 62.9489 32.0857 62.8849 32.2297L56.0929 47.9497C55.9649 48.2537 55.7409 48.4057 55.4209 48.4057H53.5009ZM75.073 43.8457C73.617 43.8457 72.521 43.4697 71.785 42.7177C71.049 41.9497 70.681 40.8297 70.681 39.3577V33.9337H68.785C68.625 33.9337 68.489 33.8777 68.377 33.7657C68.265 33.6537 68.209 33.5177 68.209 33.3577V31.9417C68.209 31.7817 68.265 31.6457 68.377 31.5337C68.489 31.4217 68.625 31.3657 68.785 31.3657H70.681V27.3817C70.681 27.2057 70.737 27.0697 70.849 26.9737C70.961 26.8617 71.097 26.8057 71.257 26.8057H73.249C73.425 26.8057 73.561 26.8617 73.657 26.9737C73.769 27.0697 73.825 27.2057 73.825 27.3817V31.3657H76.825C76.985 31.3657 77.121 31.4217 77.233 31.5337C77.345 31.6457 77.401 31.7817 77.401 31.9417V33.3577C77.401 33.5177 77.345 33.6537 77.233 33.7657C77.121 33.8777 76.985 33.9337 76.825 33.9337H73.825V39.0937C73.825 39.7817 73.945 40.3017 74.185 40.6537C74.425 41.0057 74.817 41.1817 75.361 41.1817H77.041C77.217 41.1817 77.353 41.2377 77.449 41.3497C77.561 41.4457 77.617 41.5817 77.617 41.7577V43.2697C77.617 43.4297 77.561 43.5657 77.449 43.6777C77.353 43.7897 77.217 43.8457 77.041 43.8457H75.073ZM80.3449 43.8457C80.1849 43.8457 80.0489 43.7897 79.9369 43.6777C79.8249 43.5657 79.7689 43.4297 79.7689 43.2697V27.3817C79.7689 27.2057 79.8249 27.0697 79.9369 26.9737C80.0489 26.8617 80.1849 26.8057 80.3449 26.8057H82.5289C82.7049 26.8057 82.8409 26.8617 82.9369 26.9737C83.0489 27.0697 83.1049 27.2057 83.1049 27.3817V32.8537C84.0649 31.7017 85.3529 31.1257 86.9689 31.1257C88.4409 31.1257 89.6169 31.6137 90.4969 32.5897C91.3769 33.5497 91.8169 34.8617 91.8169 36.5257V43.2697C91.8169 43.4297 91.7609 43.5657 91.6489 43.6777C91.5529 43.7897 91.4169 43.8457 91.2409 43.8457H89.0569C88.8809 43.8457 88.7369 43.7897 88.6249 43.6777C88.5129 43.5657 88.4569 43.4297 88.4569 43.2697V36.6697C88.4569 35.7417 88.2249 35.0217 87.7609 34.5097C87.3129 33.9817 86.6649 33.7177 85.8169 33.7177C85.0009 33.7177 84.3449 33.9817 83.8489 34.5097C83.3529 35.0377 83.1049 35.7577 83.1049 36.6697V43.2697C83.1049 43.4297 83.0489 43.5657 82.9369 43.6777C82.8409 43.7897 82.7049 43.8457 82.5289 43.8457H80.3449ZM100.262 44.0857C98.4701 44.0857 97.0461 43.5737 95.9901 42.5497C94.9501 41.5257 94.3981 40.0697 94.3341 38.1817L94.3101 37.5817C94.3101 35.5817 94.8301 34.0057 95.8701 32.8537C96.9261 31.7017 98.3821 31.1257 100.238 31.1257C102.142 31.1257 103.606 31.7017 104.63 32.8537C105.67 34.0057 106.19 35.5417 106.19 37.4617V37.9657C106.19 38.1257 106.134 38.2617 106.022 38.3737C105.91 38.4857 105.766 38.5417 105.59 38.5417H97.6221V38.7337C97.6541 39.6297 97.8941 40.3737 98.3421 40.9657C98.8061 41.5417 99.4381 41.8297 100.238 41.8297C101.15 41.8297 101.894 41.4617 102.47 40.7257C102.614 40.5497 102.726 40.4457 102.806 40.4137C102.886 40.3657 103.022 40.3417 103.214 40.3417H105.326C105.47 40.3417 105.59 40.3817 105.686 40.4617C105.798 40.5417 105.854 40.6537 105.854 40.7977C105.854 41.1817 105.622 41.6377 105.158 42.1657C104.71 42.6777 104.062 43.1257 103.214 43.5097C102.366 43.8937 101.382 44.0857 100.262 44.0857ZM102.878 36.5017V36.4537C102.878 35.5097 102.638 34.7577 102.158 34.1977C101.694 33.6217 101.054 33.3337 100.238 33.3337C99.4221 33.3337 98.7821 33.6217 98.3181 34.1977C97.8541 34.7577 97.6221 35.5097 97.6221 36.4537V36.5017H102.878ZM121.038 44.0857C118.83 44.0857 117.11 43.5177 115.878 42.3817C114.662 41.2457 114.014 39.6617 113.934 37.6297C113.918 37.1657 113.91 36.4217 113.91 35.3977C113.91 34.3737 113.918 33.6297 113.934 33.1657C113.998 31.1817 114.654 29.6297 115.902 28.5097C117.15 27.3737 118.862 26.8057 121.038 26.8057C122.51 26.8057 123.774 27.0617 124.83 27.5737C125.902 28.0697 126.71 28.6937 127.254 29.4457C127.798 30.1817 128.086 30.9097 128.118 31.6297C128.118 31.7737 128.07 31.8937 127.974 31.9897C127.878 32.0857 127.75 32.1337 127.59 32.1337H125.07C124.91 32.1337 124.79 32.1017 124.71 32.0377C124.63 31.9737 124.558 31.8697 124.494 31.7257C124.27 31.1337 123.878 30.6297 123.318 30.2137C122.758 29.7977 121.998 29.5897 121.038 29.5897C119.918 29.5897 119.038 29.8937 118.398 30.5017C117.774 31.0937 117.446 32.0217 117.414 33.2857C117.398 33.7497 117.39 34.4537 117.39 35.3977C117.39 36.3257 117.398 37.0297 117.414 37.5097C117.446 38.8057 117.782 39.7657 118.422 40.3897C119.062 40.9977 119.942 41.3017 121.062 41.3017C122.198 41.3017 123.11 40.9977 123.798 40.3897C124.486 39.7817 124.83 38.8697 124.83 37.6537V36.9097H121.902C121.742 36.9097 121.606 36.8537 121.494 36.7417C121.382 36.6297 121.326 36.4937 121.326 36.3337V35.0137C121.326 34.8537 121.382 34.7177 121.494 34.6057C121.606 34.4937 121.742 34.4377 121.902 34.4377H127.662C127.838 34.4377 127.982 34.4937 128.094 34.6057C128.206 34.7177 128.262 34.8537 128.262 35.0137V37.5577C128.262 38.8857 127.966 40.0457 127.374 41.0377C126.782 42.0137 125.942 42.7657 124.854 43.2937C123.766 43.8217 122.494 44.0857 121.038 44.0857ZM134.65 44.0857C133.834 44.0857 133.082 43.9257 132.394 43.6057C131.722 43.2697 131.186 42.8217 130.786 42.2617C130.402 41.7017 130.21 41.0857 130.21 40.4137C130.21 39.3257 130.65 38.4457 131.53 37.7737C132.41 37.1017 133.618 36.6457 135.154 36.4057L138.442 35.9257V35.4217C138.442 34.7337 138.266 34.2137 137.914 33.8617C137.562 33.5097 137.002 33.3337 136.234 33.3337C135.706 33.3337 135.282 33.4297 134.962 33.6217C134.642 33.8137 134.378 34.0137 134.17 34.2217C133.978 34.4137 133.85 34.5417 133.786 34.6057C133.722 34.7977 133.602 34.8937 133.426 34.8937H131.554C131.41 34.8937 131.282 34.8457 131.17 34.7497C131.074 34.6537 131.026 34.5257 131.026 34.3657C131.042 33.9657 131.234 33.5177 131.602 33.0217C131.986 32.5097 132.57 32.0697 133.354 31.7017C134.138 31.3177 135.106 31.1257 136.258 31.1257C138.146 31.1257 139.522 31.5497 140.386 32.3977C141.25 33.2457 141.682 34.3577 141.682 35.7337V43.2697C141.682 43.4297 141.626 43.5657 141.514 43.6777C141.418 43.7897 141.282 43.8457 141.106 43.8457H139.114C138.954 43.8457 138.818 43.7897 138.706 43.6777C138.594 43.5657 138.538 43.4297 138.538 43.2697V42.3337C138.186 42.8457 137.69 43.2697 137.05 43.6057C136.41 43.9257 135.61 44.0857 134.65 44.0857ZM135.466 41.7817C136.346 41.7817 137.066 41.4937 137.626 40.9177C138.186 40.3417 138.466 39.5097 138.466 38.4217V37.9417L136.066 38.3257C134.226 38.6137 133.306 39.2297 133.306 40.1737C133.306 40.6857 133.514 41.0857 133.93 41.3737C134.362 41.6457 134.874 41.7817 135.466 41.7817ZM145.337 43.8457C145.177 43.8457 145.041 43.7897 144.929 43.6777C144.817 43.5657 144.761 43.4297 144.761 43.2697V31.9417C144.761 31.7657 144.817 31.6297 144.929 31.5337C145.041 31.4217 145.177 31.3657 145.337 31.3657H147.233C147.409 31.3657 147.545 31.4217 147.641 31.5337C147.753 31.6297 147.809 31.7657 147.809 31.9417V32.7577C148.673 31.6697 149.833 31.1257 151.289 31.1257C153.065 31.1257 154.305 31.8377 155.009 33.2617C155.393 32.6217 155.937 32.1097 156.641 31.7257C157.345 31.3257 158.105 31.1257 158.921 31.1257C160.233 31.1257 161.305 31.5737 162.137 32.4697C162.969 33.3657 163.385 34.6697 163.385 36.3817V43.2697C163.385 43.4297 163.329 43.5657 163.217 43.6777C163.121 43.7897 162.985 43.8457 162.809 43.8457H160.817C160.657 43.8457 160.521 43.7897 160.409 43.6777C160.297 43.5657 160.241 43.4297 160.241 43.2697V36.5737C160.241 35.5657 160.025 34.8377 159.593 34.3897C159.177 33.9417 158.625 33.7177 157.937 33.7177C157.313 33.7177 156.777 33.9497 156.329 34.4137C155.897 34.8617 155.681 35.5817 155.681 36.5737V43.2697C155.681 43.4297 155.625 43.5657 155.513 43.6777C155.417 43.7897 155.281 43.8457 155.105 43.8457H153.089C152.929 43.8457 152.793 43.7897 152.681 43.6777C152.569 43.5657 152.513 43.4297 152.513 43.2697V36.5737C152.513 35.5817 152.297 34.8617 151.865 34.4137C151.433 33.9497 150.881 33.7177 150.209 33.7177C149.585 33.7177 149.049 33.9497 148.601 34.4137C148.169 34.8617 147.953 35.5817 147.953 36.5737V43.2697C147.953 43.4297 147.897 43.5657 147.785 43.6777C147.689 43.7897 147.553 43.8457 147.377 43.8457H145.337ZM171.84 44.0857C170.048 44.0857 168.624 43.5737 167.568 42.5497C166.528 41.5257 165.976 40.0697 165.912 38.1817L165.888 37.5817C165.888 35.5817 166.408 34.0057 167.448 32.8537C168.504 31.7017 169.96 31.1257 171.816 31.1257C173.72 31.1257 175.184 31.7017 176.208 32.8537C177.248 34.0057 177.768 35.5417 177.768 37.4617V37.9657C177.768 38.1257 177.712 38.2617 177.6 38.3737C177.488 38.4857 177.344 38.5417 177.168 38.5417H169.2V38.7337C169.232 39.6297 169.472 40.3737 169.92 40.9657C170.384 41.5417 171.016 41.8297 171.816 41.8297C172.728 41.8297 173.472 41.4617 174.048 40.7257C174.192 40.5497 174.304 40.4457 174.384 40.4137C174.464 40.3657 174.6 40.3417 174.792 40.3417H176.904C177.048 40.3417 177.168 40.3817 177.264 40.4617C177.376 40.5417 177.432 40.6537 177.432 40.7977C177.432 41.1817 177.2 41.6377 176.736 42.1657C176.288 42.6777 175.64 43.1257 174.792 43.5097C173.944 43.8937 172.96 44.0857 171.84 44.0857ZM174.456 36.5017V36.4537C174.456 35.5097 174.216 34.7577 173.736 34.1977C173.272 33.6217 172.632 33.3337 171.816 33.3337C171 33.3337 170.36 33.6217 169.896 34.1977C169.432 34.7577 169.2 35.5097 169.2 36.4537V36.5017H174.456Z" fill="#1D1C17"/>
</svg>
