<svg width="193" height="73" viewBox="0 0 193 73" fill="none" xmlns="http://www.w3.org/2000/svg">
<path d="M3.37988 24.0967C3.37988 22.9921 4.27531 22.0967 5.37988 22.0967H187.456C188.561 22.0967 189.456 22.9921 189.456 24.0967V69.5033C189.456 70.6079 188.561 71.5033 187.456 71.5033H5.37988C4.27531 71.5033 3.37988 70.6079 3.37988 69.5033V24.0967Z" fill="#F4B137"/>
<path d="M3.37988 5.8457C3.37988 4.74113 4.27531 3.8457 5.37988 3.8457H187.38C188.484 3.8457 189.38 4.74113 189.38 5.8457V60.8457C189.38 61.9503 188.484 62.8457 187.38 62.8457H5.37988C4.27531 62.8457 3.37988 61.9503 3.37988 60.8457V5.8457Z" fill="#FFCF2F"/>
<path d="M5.37988 2.3457C3.44688 2.3457 1.87988 3.91271 1.87988 5.84571V67.5033C1.87988 69.4363 3.44688 71.0033 5.37988 71.0033H187.456C189.389 71.0033 190.956 69.4363 190.956 67.5033V5.8457C190.956 3.91271 189.389 2.3457 187.456 2.3457H5.37988Z" stroke="#1E1C11" stroke-width="3"/>
<path d="M14.7814 43.8457C14.6374 43.8457 14.5174 43.7977 14.4214 43.7017C14.3254 43.6057 14.2774 43.4857 14.2774 43.3417L14.3254 43.1257L20.0854 27.6457C20.2454 27.2457 20.5334 27.0457 20.9494 27.0457H23.5894C24.0054 27.0457 24.2934 27.2457 24.4534 27.6457L30.2134 43.1257L30.2614 43.3417C30.2614 43.4857 30.2054 43.6057 30.0934 43.7017C29.9974 43.7977 29.8854 43.8457 29.7574 43.8457H27.6214C27.2854 43.8457 27.0534 43.6937 26.9254 43.3897L25.8214 40.4857H18.7174L17.6134 43.3897C17.4854 43.6937 17.2534 43.8457 16.9174 43.8457H14.7814ZM19.5574 37.7017H24.9814L22.2694 30.3097L19.5574 37.7017ZM36.9415 44.0857C35.7255 44.0857 34.7095 43.9017 33.8935 43.5337C33.0775 43.1657 32.4695 42.7417 32.0695 42.2617C31.6855 41.7657 31.4935 41.3417 31.4935 40.9897C31.4935 40.8297 31.5415 40.7017 31.6375 40.6057C31.7495 40.5097 31.8775 40.4617 32.0215 40.4617H33.9895C34.1175 40.4617 34.2295 40.5257 34.3255 40.6537C34.4055 40.7177 34.5815 40.8697 34.8535 41.1097C35.1415 41.3497 35.4615 41.5417 35.8135 41.6857C36.1815 41.8137 36.5815 41.8777 37.0135 41.8777C37.6535 41.8777 38.1735 41.7577 38.5735 41.5177C38.9735 41.2617 39.1735 40.9017 39.1735 40.4377C39.1735 40.1177 39.0775 39.8617 38.8855 39.6697C38.7095 39.4617 38.3815 39.2777 37.9015 39.1177C37.4375 38.9417 36.7335 38.7497 35.7895 38.5417C34.4295 38.2537 33.4215 37.8137 32.7655 37.2217C32.1255 36.6297 31.8055 35.8457 31.8055 34.8697C31.8055 34.2297 31.9975 33.6297 32.3815 33.0697C32.7655 32.4937 33.3335 32.0297 34.0855 31.6777C34.8535 31.3097 35.7655 31.1257 36.8215 31.1257C37.9095 31.1257 38.8455 31.3017 39.6295 31.6537C40.4135 31.9897 41.0055 32.3977 41.4055 32.8777C41.8215 33.3577 42.0295 33.7817 42.0295 34.1497C42.0295 34.2937 41.9735 34.4217 41.8615 34.5337C41.7655 34.6297 41.6455 34.6777 41.5015 34.6777H39.7015C39.5255 34.6777 39.3895 34.6137 39.2935 34.4857C39.1815 34.4057 38.9975 34.2617 38.7415 34.0537C38.5015 33.8297 38.2295 33.6537 37.9255 33.5257C37.6215 33.3977 37.2535 33.3337 36.8215 33.3337C36.2295 33.3337 35.7735 33.4617 35.4535 33.7177C35.1335 33.9737 34.9735 34.3097 34.9735 34.7257C34.9735 35.0137 35.0455 35.2537 35.1895 35.4457C35.3495 35.6377 35.6615 35.8217 36.1255 35.9977C36.5895 36.1577 37.2855 36.3257 38.2135 36.5017C41.0935 37.0617 42.5335 38.3177 42.5335 40.2697C42.5335 41.4057 42.0375 42.3257 41.0455 43.0297C40.0695 43.7337 38.7015 44.0857 36.9415 44.0857ZM45.5864 43.8457C45.4264 43.8457 45.2904 43.7897 45.1784 43.6777C45.0664 43.5657 45.0104 43.4297 45.0104 43.2697V27.3817C45.0104 27.2057 45.0664 27.0697 45.1784 26.9737C45.2904 26.8617 45.4264 26.8057 45.5864 26.8057H47.5784C47.7384 26.8057 47.8744 26.8617 47.9864 26.9737C48.0984 27.0857 48.1544 27.2217 48.1544 27.3817V35.5897L52.1384 31.7737C52.1864 31.7417 52.2584 31.6857 52.3544 31.6057C52.4664 31.5097 52.5704 31.4457 52.6664 31.4137C52.7624 31.3817 52.8824 31.3657 53.0264 31.3657H55.3064C55.4664 31.3657 55.5944 31.4137 55.6904 31.5097C55.7864 31.6057 55.8344 31.7337 55.8344 31.8937C55.8344 32.0377 55.7544 32.1817 55.5944 32.3257L50.6984 36.9577L56.1944 42.9097C56.3384 43.0537 56.4104 43.1897 56.4104 43.3177C56.4104 43.4777 56.3624 43.6057 56.2664 43.7017C56.1704 43.7977 56.0504 43.8457 55.9064 43.8457H53.5784C53.3544 43.8457 53.1864 43.8217 53.0744 43.7737C52.9784 43.7097 52.8504 43.5977 52.6904 43.4377L48.1544 38.6137V43.2697C48.1544 43.4297 48.0984 43.5657 47.9864 43.6777C47.8744 43.7897 47.7384 43.8457 47.5784 43.8457H45.5864ZM74.5894 45.4057C74.3814 45.4057 74.2054 45.3497 74.0614 45.2377C73.9334 45.1417 73.8134 45.0137 73.7014 44.8537L72.8134 43.6537C72.0934 43.9417 71.2454 44.0857 70.2694 44.0857C68.0934 44.0857 66.3894 43.5337 65.1574 42.4297C63.9414 41.3257 63.3014 39.6857 63.2374 37.5097C63.2214 37.0457 63.2134 36.3657 63.2134 35.4697C63.2134 34.5577 63.2214 33.8697 63.2374 33.4057C63.3014 31.2777 63.9574 29.6457 65.2054 28.5097C66.4694 27.3737 68.1574 26.8057 70.2694 26.8057C72.3974 26.8057 74.0854 27.3737 75.3334 28.5097C76.5814 29.6457 77.2374 31.2777 77.3014 33.4057C77.3334 34.3337 77.3494 35.0217 77.3494 35.4697C77.3494 35.9017 77.3334 36.5817 77.3014 37.5097C77.2374 39.6217 76.6614 41.2057 75.5734 42.2617L77.2534 44.6617C77.3014 44.7577 77.3254 44.8377 77.3254 44.9017V44.9497C77.3254 45.0777 77.2774 45.1817 77.1814 45.2617C77.0854 45.3577 76.9734 45.4057 76.8454 45.4057H74.5894ZM70.2694 41.3017C71.3414 41.3017 72.1894 40.9817 72.8134 40.3417C73.4534 39.6857 73.7894 38.7017 73.8214 37.3897C73.8534 36.4297 73.8694 35.7817 73.8694 35.4457C73.8694 35.0777 73.8534 34.4297 73.8214 33.5017C73.7894 32.1897 73.4534 31.2137 72.8134 30.5737C72.1734 29.9177 71.3254 29.5897 70.2694 29.5897C69.2134 29.5897 68.3654 29.9177 67.7254 30.5737C67.1014 31.2137 66.7654 32.1897 66.7174 33.5017C66.7014 33.9657 66.6934 34.6137 66.6934 35.4457C66.6934 36.2617 66.7014 36.9097 66.7174 37.3897C66.7654 38.7177 67.1014 39.7017 67.7254 40.3417C68.3494 40.9817 69.1974 41.3017 70.2694 41.3017ZM84.8449 44.0857C83.3729 44.0857 82.2129 43.6057 81.3649 42.6457C80.5169 41.6857 80.0929 40.3657 80.0929 38.6857V31.9417C80.0929 31.7657 80.1489 31.6297 80.2609 31.5337C80.3729 31.4217 80.5089 31.3657 80.6689 31.3657H82.8289C82.9889 31.3657 83.1249 31.4217 83.2369 31.5337C83.3489 31.6457 83.4049 31.7817 83.4049 31.9417V38.5417C83.4049 40.5097 84.2609 41.4937 85.9729 41.4937C86.8049 41.4937 87.4609 41.2297 87.9409 40.7017C88.4369 40.1737 88.6849 39.4537 88.6849 38.5417V31.9417C88.6849 31.7657 88.7409 31.6297 88.8529 31.5337C88.9649 31.4217 89.1009 31.3657 89.2609 31.3657H91.3969C91.5729 31.3657 91.7089 31.4217 91.8049 31.5337C91.9169 31.6297 91.9729 31.7657 91.9729 31.9417V43.2697C91.9729 43.4297 91.9169 43.5657 91.8049 43.6777C91.7089 43.7897 91.5729 43.8457 91.3969 43.8457H89.4049C89.2449 43.8457 89.1089 43.7897 88.9969 43.6777C88.8849 43.5657 88.8289 43.4297 88.8289 43.2697V42.2857C87.9489 43.4857 86.6209 44.0857 84.8449 44.0857ZM100.543 44.0857C98.7506 44.0857 97.3266 43.5737 96.2706 42.5497C95.2306 41.5257 94.6786 40.0697 94.6146 38.1817L94.5906 37.5817C94.5906 35.5817 95.1106 34.0057 96.1506 32.8537C97.2066 31.7017 98.6626 31.1257 100.519 31.1257C102.423 31.1257 103.887 31.7017 104.911 32.8537C105.951 34.0057 106.471 35.5417 106.471 37.4617V37.9657C106.471 38.1257 106.415 38.2617 106.303 38.3737C106.191 38.4857 106.047 38.5417 105.871 38.5417H97.9026V38.7337C97.9346 39.6297 98.1746 40.3737 98.6226 40.9657C99.0866 41.5417 99.7186 41.8297 100.519 41.8297C101.431 41.8297 102.175 41.4617 102.751 40.7257C102.895 40.5497 103.007 40.4457 103.087 40.4137C103.167 40.3657 103.303 40.3417 103.495 40.3417H105.607C105.751 40.3417 105.871 40.3817 105.967 40.4617C106.079 40.5417 106.135 40.6537 106.135 40.7977C106.135 41.1817 105.903 41.6377 105.439 42.1657C104.991 42.6777 104.343 43.1257 103.495 43.5097C102.647 43.8937 101.663 44.0857 100.543 44.0857ZM103.159 36.5017V36.4537C103.159 35.5097 102.919 34.7577 102.439 34.1977C101.975 33.6217 101.335 33.3337 100.519 33.3337C99.7026 33.3337 99.0626 33.6217 98.5986 34.1977C98.1346 34.7577 97.9026 35.5097 97.9026 36.4537V36.5017H103.159ZM113.77 44.0857C112.554 44.0857 111.538 43.9017 110.722 43.5337C109.906 43.1657 109.298 42.7417 108.898 42.2617C108.514 41.7657 108.322 41.3417 108.322 40.9897C108.322 40.8297 108.37 40.7017 108.466 40.6057C108.578 40.5097 108.706 40.4617 108.85 40.4617H110.818C110.946 40.4617 111.058 40.5257 111.154 40.6537C111.234 40.7177 111.41 40.8697 111.682 41.1097C111.97 41.3497 112.29 41.5417 112.642 41.6857C113.01 41.8137 113.41 41.8777 113.842 41.8777C114.482 41.8777 115.002 41.7577 115.402 41.5177C115.802 41.2617 116.002 40.9017 116.002 40.4377C116.002 40.1177 115.906 39.8617 115.714 39.6697C115.538 39.4617 115.21 39.2777 114.73 39.1177C114.266 38.9417 113.562 38.7497 112.618 38.5417C111.258 38.2537 110.25 37.8137 109.594 37.2217C108.954 36.6297 108.634 35.8457 108.634 34.8697C108.634 34.2297 108.826 33.6297 109.21 33.0697C109.594 32.4937 110.162 32.0297 110.914 31.6777C111.682 31.3097 112.594 31.1257 113.65 31.1257C114.738 31.1257 115.674 31.3017 116.458 31.6537C117.242 31.9897 117.834 32.3977 118.234 32.8777C118.65 33.3577 118.858 33.7817 118.858 34.1497C118.858 34.2937 118.802 34.4217 118.69 34.5337C118.594 34.6297 118.474 34.6777 118.33 34.6777H116.53C116.354 34.6777 116.218 34.6137 116.122 34.4857C116.01 34.4057 115.826 34.2617 115.57 34.0537C115.33 33.8297 115.058 33.6537 114.754 33.5257C114.45 33.3977 114.082 33.3337 113.65 33.3337C113.058 33.3337 112.602 33.4617 112.282 33.7177C111.962 33.9737 111.802 34.3097 111.802 34.7257C111.802 35.0137 111.874 35.2537 112.018 35.4457C112.178 35.6377 112.49 35.8217 112.954 35.9977C113.418 36.1577 114.114 36.3257 115.042 36.5017C117.922 37.0617 119.362 38.3177 119.362 40.2697C119.362 41.4057 118.866 42.3257 117.874 43.0297C116.898 43.7337 115.53 44.0857 113.77 44.0857ZM127.432 43.8457C125.976 43.8457 124.88 43.4697 124.144 42.7177C123.408 41.9497 123.04 40.8297 123.04 39.3577V33.9337H121.144C120.984 33.9337 120.848 33.8777 120.736 33.7657C120.624 33.6537 120.568 33.5177 120.568 33.3577V31.9417C120.568 31.7817 120.624 31.6457 120.736 31.5337C120.848 31.4217 120.984 31.3657 121.144 31.3657H123.04V27.3817C123.04 27.2057 123.096 27.0697 123.208 26.9737C123.32 26.8617 123.456 26.8057 123.616 26.8057H125.608C125.784 26.8057 125.92 26.8617 126.016 26.9737C126.128 27.0697 126.184 27.2057 126.184 27.3817V31.3657H129.184C129.344 31.3657 129.48 31.4217 129.592 31.5337C129.704 31.6457 129.76 31.7817 129.76 31.9417V33.3577C129.76 33.5177 129.704 33.6537 129.592 33.7657C129.48 33.8777 129.344 33.9337 129.184 33.9337H126.184V39.0937C126.184 39.7817 126.304 40.3017 126.544 40.6537C126.784 41.0057 127.176 41.1817 127.72 41.1817H129.4C129.576 41.1817 129.712 41.2377 129.808 41.3497C129.92 41.4457 129.976 41.5817 129.976 41.7577V43.2697C129.976 43.4297 129.92 43.5657 129.808 43.6777C129.712 43.7897 129.576 43.8457 129.4 43.8457H127.432ZM132.584 29.3257C132.424 29.3257 132.288 29.2697 132.176 29.1577C132.064 29.0457 132.008 28.9097 132.008 28.7497V26.9977C132.008 26.8217 132.064 26.6777 132.176 26.5657C132.288 26.4537 132.424 26.3977 132.584 26.3977H134.792C134.968 26.3977 135.112 26.4537 135.224 26.5657C135.336 26.6777 135.392 26.8217 135.392 26.9977V28.7497C135.392 28.9097 135.328 29.0457 135.2 29.1577C135.088 29.2697 134.952 29.3257 134.792 29.3257H132.584ZM132.68 43.8457C132.52 43.8457 132.384 43.7897 132.272 43.6777C132.16 43.5657 132.104 43.4297 132.104 43.2697V31.9417C132.104 31.7657 132.16 31.6297 132.272 31.5337C132.384 31.4217 132.52 31.3657 132.68 31.3657H134.72C134.88 31.3657 135.016 31.4217 135.128 31.5337C135.24 31.6457 135.296 31.7817 135.296 31.9417V43.2697C135.296 43.4297 135.24 43.5657 135.128 43.6777C135.016 43.7897 134.88 43.8457 134.72 43.8457H132.68ZM143.999 44.0857C142.111 44.0857 140.655 43.6057 139.631 42.6457C138.607 41.6857 138.055 40.3577 137.975 38.6617L137.951 37.6057L137.975 36.5497C138.055 34.8697 138.615 33.5497 139.655 32.5897C140.695 31.6137 142.143 31.1257 143.999 31.1257C145.839 31.1257 147.279 31.6137 148.319 32.5897C149.359 33.5497 149.919 34.8697 149.999 36.5497C150.015 36.7417 150.023 37.0937 150.023 37.6057C150.023 38.1177 150.015 38.4697 149.999 38.6617C149.919 40.3577 149.367 41.6857 148.343 42.6457C147.319 43.6057 145.871 44.0857 143.999 44.0857ZM143.999 41.6617C144.847 41.6617 145.495 41.3977 145.943 40.8697C146.407 40.3417 146.655 39.5657 146.687 38.5417C146.703 38.3817 146.711 38.0697 146.711 37.6057C146.711 37.1417 146.703 36.8297 146.687 36.6697C146.655 35.6457 146.407 34.8697 145.943 34.3417C145.479 33.7977 144.831 33.5257 143.999 33.5257C143.151 33.5257 142.495 33.7977 142.031 34.3417C141.567 34.8697 141.319 35.6457 141.287 36.6697L141.263 37.6057L141.287 38.5417C141.319 39.5657 141.567 40.3417 142.031 40.8697C142.495 41.3977 143.151 41.6617 143.999 41.6617ZM153.258 43.8457C153.098 43.8457 152.962 43.7897 152.85 43.6777C152.738 43.5657 152.682 43.4297 152.682 43.2697V31.9417C152.682 31.7657 152.738 31.6297 152.85 31.5337C152.962 31.4217 153.098 31.3657 153.258 31.3657H155.25C155.426 31.3657 155.562 31.4217 155.658 31.5337C155.77 31.6297 155.826 31.7657 155.826 31.9417V32.9257C156.802 31.7257 158.138 31.1257 159.834 31.1257C161.306 31.1257 162.474 31.6057 163.338 32.5657C164.202 33.5257 164.634 34.8457 164.634 36.5257V43.2697C164.634 43.4297 164.578 43.5657 164.466 43.6777C164.37 43.7897 164.234 43.8457 164.058 43.8457H161.898C161.738 43.8457 161.602 43.7897 161.49 43.6777C161.378 43.5657 161.322 43.4297 161.322 43.2697V36.6697C161.322 35.7417 161.09 35.0217 160.626 34.5097C160.178 33.9817 159.53 33.7177 158.682 33.7177C157.866 33.7177 157.21 33.9817 156.714 34.5097C156.218 35.0377 155.97 35.7577 155.97 36.6697V43.2697C155.97 43.4297 155.914 43.5657 155.802 43.6777C155.706 43.7897 155.57 43.8457 155.394 43.8457H153.258ZM172.434 44.0857C171.218 44.0857 170.202 43.9017 169.386 43.5337C168.57 43.1657 167.962 42.7417 167.562 42.2617C167.178 41.7657 166.986 41.3417 166.986 40.9897C166.986 40.8297 167.034 40.7017 167.13 40.6057C167.242 40.5097 167.37 40.4617 167.514 40.4617H169.482C169.61 40.4617 169.722 40.5257 169.818 40.6537C169.898 40.7177 170.074 40.8697 170.346 41.1097C170.634 41.3497 170.954 41.5417 171.306 41.6857C171.674 41.8137 172.074 41.8777 172.506 41.8777C173.146 41.8777 173.666 41.7577 174.066 41.5177C174.466 41.2617 174.666 40.9017 174.666 40.4377C174.666 40.1177 174.57 39.8617 174.378 39.6697C174.202 39.4617 173.874 39.2777 173.394 39.1177C172.93 38.9417 172.226 38.7497 171.282 38.5417C169.922 38.2537 168.914 37.8137 168.258 37.2217C167.618 36.6297 167.298 35.8457 167.298 34.8697C167.298 34.2297 167.49 33.6297 167.874 33.0697C168.258 32.4937 168.826 32.0297 169.578 31.6777C170.346 31.3097 171.258 31.1257 172.314 31.1257C173.402 31.1257 174.338 31.3017 175.122 31.6537C175.906 31.9897 176.498 32.3977 176.898 32.8777C177.314 33.3577 177.522 33.7817 177.522 34.1497C177.522 34.2937 177.466 34.4217 177.354 34.5337C177.258 34.6297 177.138 34.6777 176.994 34.6777H175.194C175.018 34.6777 174.882 34.6137 174.786 34.4857C174.674 34.4057 174.49 34.2617 174.234 34.0537C173.994 33.8297 173.722 33.6537 173.418 33.5257C173.114 33.3977 172.746 33.3337 172.314 33.3337C171.722 33.3337 171.266 33.4617 170.946 33.7177C170.626 33.9737 170.466 34.3097 170.466 34.7257C170.466 35.0137 170.538 35.2537 170.682 35.4457C170.842 35.6377 171.154 35.8217 171.618 35.9977C172.082 36.1577 172.778 36.3257 173.706 36.5017C176.586 37.0617 178.026 38.3177 178.026 40.2697C178.026 41.4057 177.53 42.3257 176.538 43.0297C175.562 43.7337 174.194 44.0857 172.434 44.0857Z" fill="#1D1C17"/>
</svg>
